<?xml version="1.0" encoding="utf-8"?>
<!-- Generator: Adobe Illustrator 27.5.0, SVG Export Plug-In . SVG Version: 6.00 Build 0)  -->
<svg version="1.1" xmlns="http://www.w3.org/2000/svg" xmlns:xlink="http://www.w3.org/1999/xlink" x="0px" y="0px"
	 viewBox="0 0 500 500" style="enable-background:new 0 0 500 500;" xml:space="preserve">
<g id="BACKGROUND">
	<rect style="fill:#FFFFFF;" width="500" height="500"/>
</g>
<g id="OBJECTS">
	<g>
		<g>
			<path style="fill:#2CBF7B;" d="M408.222,347.269c1.335,0.213,2.662,0.562,3.93,0.965c17.696,5.625,30.549,20.486,35.314,38.191
				c-16.333,6.004-36.912,1.32-49.817-9.959c-2.756-2.408-5.344-5.326-6.053-8.917c-0.825-4.178,1.04-8.382,3.048-12.138
				c1.526-2.855,3.312-5.796,6.186-7.286C403.09,346.955,405.67,346.862,408.222,347.269z"/>
			<path style="fill:#033A3F;" d="M377.289,348.303c0.009,0.007,0.019,0.013,0.03,0.016c12.5,4.361,24.754,9.805,36.423,16.183
				c11.669,6.378,22.869,13.751,33.289,21.917c0.052,0.039,0.117,0.029,0.154-0.019c0.037-0.048,0.029-0.117-0.019-0.154
				c-10.429-8.174-21.639-15.554-33.319-21.937c-11.679-6.383-23.945-11.833-36.456-16.197c-0.057-0.02-0.12,0.01-0.14,0.067
				C377.236,348.225,377.252,348.275,377.289,348.303z"/>
			<path style="fill:#033A3F;" d="M438.046,388.599c0.036,0.028,0.087,0.031,0.127,0.004c0.05-0.033,0.064-0.102,0.031-0.152
				l-1.356-2.042c-2.78-4.185-5.251-8.529-7.146-12.562c-0.026-0.055-0.091-0.078-0.146-0.053c-0.055,0.026-0.078,0.091-0.053,0.146
				c1.9,4.043,4.377,8.396,7.162,12.59l1.356,2.042C438.028,388.583,438.037,388.592,438.046,388.599z"/>
			<path style="fill:#033A3F;" d="M426.589,388.842c0.041,0.031,0.1,0.03,0.14-0.006c0.045-0.04,0.049-0.11,0.008-0.155
				c-1.255-1.397-2.286-3.357-3.196-5.087c-0.209-0.398-0.407-0.773-0.606-1.141c-2.855-5.274-5.992-11.463-7.615-17.385
				c-0.016-0.058-0.076-0.093-0.135-0.077c-0.058,0.016-0.093,0.076-0.077,0.135c1.629,5.943,4.773,12.147,7.634,17.432
				c0.198,0.366,0.395,0.741,0.604,1.138c0.916,1.741,1.954,3.715,3.227,5.132C426.578,388.833,426.583,388.838,426.589,388.842z"/>
			<path style="fill:#033A3F;" d="M412.843,385.667c0.037,0.028,0.089,0.031,0.13,0.003c0.049-0.035,0.061-0.103,0.027-0.153
				c-4.193-5.969-7.397-12.654-10.497-19.119c-1.293-2.696-2.758-5.753-2.598-8.959c0.003-0.06-0.043-0.112-0.104-0.115
				c-0.06-0.003-0.112,0.044-0.115,0.104c-0.162,3.262,1.316,6.345,2.62,9.065c3.103,6.473,6.312,13.166,10.515,19.15
				C412.826,385.652,412.834,385.66,412.843,385.667z"/>
			<path style="fill:#033A3F;" d="M429.536,373.981c0.021,0.016,0.047,0.024,0.075,0.022c4.53-0.351,9.079,0.335,13.908,2.099
				c0.057,0.021,0.12-0.009,0.141-0.065c0.021-0.057-0.008-0.12-0.065-0.141c-4.859-1.774-9.438-2.465-14-2.111
				c-0.06,0.005-0.106,0.057-0.101,0.118C429.495,373.935,429.512,373.963,429.536,373.981z"/>
			<path style="fill:#033A3F;" d="M415.142,365.216c0.039,0.03,0.095,0.031,0.135-0.002c0.315-0.254,4.025-1.201,8.445-2.158
				c3.697-0.8,8.427-1.711,9.586-1.644c0.06,0.003,0.112-0.043,0.116-0.103c0.003-0.06-0.043-0.112-0.103-0.116
				c-2.303-0.131-17.435,3.25-18.181,3.85c-0.047,0.038-0.055,0.107-0.017,0.154C415.128,365.205,415.135,365.211,415.142,365.216z"
				/>
			<path style="fill:#033A3F;" d="M398.823,357.337c0.027,0.02,0.062,0.028,0.097,0.018c4.447-1.292,8.807-3.018,12.486-4.535
				l0.09-0.037c2.347-0.968,4.774-1.969,7.301-1.923c0.061,0.001,0.111-0.047,0.112-0.108c0.001-0.06-0.047-0.11-0.108-0.112
				c-2.573-0.047-5.021,0.963-7.389,1.94l-0.09,0.037c-3.673,1.515-8.027,3.238-12.464,4.528c-0.058,0.017-0.092,0.078-0.075,0.136
				C398.791,357.304,398.805,357.323,398.823,357.337z"/>
			<path style="fill:#033A3F;" d="M377.289,348.303c0.009,0.007,0.019,0.013,0.03,0.016c12.533,4.372,24.849,9.837,36.605,16.242
				c11.817,6.438,23.079,13.832,33.471,21.976c0,0,0.001,0.001,0.001,0.001c0.048,0.036,0.116,0.028,0.153-0.019
				c0.037-0.048,0.029-0.117-0.019-0.154c-10.401-8.151-21.673-15.552-33.501-21.996c-11.767-6.411-24.094-11.88-36.638-16.257
				c-0.057-0.02-0.12,0.01-0.14,0.067C377.236,348.225,377.252,348.275,377.289,348.303z"/>
		</g>
		<g>
			<path style="fill:#2CBF7B;" d="M391.97,322.324c0.616,0.758,1.34,1.433,2.185,2.006c3.377,2.287,7.746,2.762,11.754,2.009
				c6.575-1.235,12.187-5.449,17.078-10.013c17.531-16.358,28.571-38.666,32.325-62.249c-9.103,12.015-24.415,16.717-37.521,22.853
				c-11.078,5.187-22.209,12.488-26.66,23.882C388.779,306.832,387.465,316.778,391.97,322.324z"/>
			<path style="fill:#033A3F;" d="M370.628,336.632c0.031,0.021,0.072,0.025,0.108,0.008c13.64-6.464,25.61-16.001,37.185-25.225
				c3.334-2.656,6.781-5.403,10.035-8.274c7.103-6.267,13.788-13.52,20.439-22.174c5.494-7.15,11.026-15.362,16.911-25.108
				c0.031-0.052,0.014-0.12-0.037-0.15c-0.052-0.031-0.119-0.015-0.15,0.037c-5.881,9.738-11.408,17.945-16.897,25.088
				c-6.642,8.643-13.318,15.887-20.41,22.144c-3.25,2.867-6.695,5.612-10.027,8.267c-11.566,9.216-23.526,18.746-37.143,25.199
				c-0.055,0.026-0.078,0.091-0.052,0.146C370.599,336.606,370.612,336.621,370.628,336.632z"/>
			<path style="fill:#033A3F;" d="M397.197,320.532c0.02,0.014,0.045,0.021,0.071,0.018c8.598-0.735,17.183-2.248,25.515-4.496
				c0.059-0.016,0.093-0.076,0.077-0.134c-0.016-0.059-0.076-0.093-0.134-0.077c-8.32,2.245-16.891,3.756-25.477,4.49
				c-0.06,0.005-0.105,0.058-0.1,0.119C397.152,320.485,397.17,320.514,397.197,320.532z"/>
			<path style="fill:#033A3F;" d="M414.623,305.894c0.023,0.015,0.051,0.022,0.08,0.017c1.965-0.336,17.685-3.567,21.812-4.867
				c0.058-0.018,0.09-0.08,0.072-0.138c-0.018-0.058-0.08-0.09-0.138-0.072c-4.12,1.298-19.82,4.525-21.783,4.86
				c-0.06,0.01-0.1,0.067-0.09,0.127C414.582,305.852,414.599,305.878,414.623,305.894z"/>
			<path style="fill:#033A3F;" d="M433.246,287.117c0.027,0.018,0.061,0.024,0.094,0.014c4.799-1.506,11.242-4.317,14.932-7.687
				c0.045-0.041,0.048-0.11,0.007-0.155c-0.041-0.045-0.11-0.048-0.155-0.007c-3.663,3.346-10.073,6.141-14.85,7.64
				c-0.058,0.018-0.09,0.08-0.072,0.137C433.211,287.083,433.226,287.103,433.246,287.117z"/>
			<path style="fill:#033A3F;" d="M433.179,287.126c0.014,0.01,0.031,0.016,0.049,0.018c0.06,0.006,0.114-0.037,0.121-0.097
				l0.848-7.867c0.407-3.78,1.3-7.794,2.389-10.738c0.021-0.057-0.008-0.12-0.065-0.141c-0.057-0.021-0.12,0.008-0.141,0.065
				c-1.095,2.959-1.992,6.993-2.402,10.79l-0.848,7.867C433.127,287.065,433.146,287.104,433.179,287.126z"/>
			<path style="fill:#033A3F;" d="M414.623,305.894c0.025,0.017,0.057,0.023,0.088,0.016c0.059-0.015,0.094-0.074,0.08-0.133
				c-1.355-5.417-0.105-10.671,1.219-16.233c0.182-0.767,0.371-1.559,0.55-2.342c0.386-1.691,0.91-3.608,1.418-5.461
				c0.508-1.856,1.033-3.776,1.42-5.471c0.013-0.059-0.023-0.118-0.082-0.131c-0.059-0.013-0.118,0.023-0.131,0.082
				c-0.386,1.691-0.91,3.608-1.418,5.462c-0.508,1.856-1.033,3.775-1.42,5.47c-0.178,0.781-0.367,1.573-0.549,2.34
				c-1.272,5.343-2.587,10.868-1.218,16.337C414.585,305.857,414.602,305.879,414.623,305.894z"/>
			<path style="fill:#033A3F;" d="M397.845,320.086c0.019,0.013,0.042,0.02,0.067,0.019c0.06-0.003,0.107-0.054,0.104-0.115
				c-0.517-10.478,0.215-21.017,2.173-31.323c0.011-0.06-0.028-0.117-0.087-0.128c-0.06-0.011-0.117,0.028-0.128,0.087
				c-1.962,10.323-2.694,20.879-2.177,31.375C397.798,320.037,397.817,320.068,397.845,320.086z"/>
			<path style="fill:#033A3F;" d="M370.628,336.632c0.031,0.021,0.072,0.025,0.108,0.008c13.64-6.464,25.61-16.001,37.185-25.225
				c3.334-2.656,6.781-5.403,10.035-8.274c7.103-6.267,13.788-13.52,20.439-22.174c5.494-7.15,11.026-15.362,16.911-25.108
				c0.031-0.052,0.014-0.12-0.037-0.15c-0.052-0.031-0.119-0.015-0.15,0.037c-5.881,9.738-11.408,17.945-16.897,25.088
				c-6.642,8.643-13.318,15.887-20.41,22.144c-3.25,2.867-6.695,5.612-10.027,8.267c-11.566,9.216-23.526,18.746-37.143,25.199
				c-0.055,0.026-0.078,0.091-0.052,0.146C370.599,336.606,370.612,336.621,370.628,336.632z"/>
		</g>
		<g>
			<path style="fill:#027369;" d="M371.223,350.105c8.602-18.547,28.897-29.621,49.202-32.014
				c20.304-2.393,40.739,2.612,60.201,8.875c-10.513-1.124-21.296,0.364-31.112,4.294c-13.478,5.396-24.779,15.126-37.853,21.439
				c-13.074,6.312-29.949,8.586-41.226-0.558L371.223,350.105z"/>
			<path style="fill:#033A3F;" d="M347.05,365.72c0.082,0.034,0.165,0.067,0.247,0.1c1.458-0.976,3.032-2.012,4.711-3.094
				c0.587-0.377,1.186-0.761,1.798-1.149c0.907-0.576,1.842-1.164,2.802-1.76c1.293-0.803,2.632-1.623,4.015-2.454
				c1.413-0.849,2.825-1.685,4.236-2.505c0.185-0.107,0.37-0.215,0.555-0.321c0.108-0.063,0.216-0.125,0.323-0.187l0.001,0
				c0.344-0.199,0.688-0.397,1.033-0.593c0.643-0.368,1.286-0.734,1.929-1.095c0.001,0,0.002-0.001,0.003-0.001
				c0.652-0.367,1.303-0.73,1.953-1.09c0.042-0.024,0.085-0.047,0.127-0.07c4.722-2.609,9.421-5.044,14.059-7.283
				c0.249-0.121,0.497-0.24,0.747-0.359c0.487-0.234,0.974-0.465,1.46-0.694c0.734-0.346,1.466-0.687,2.196-1.023
				c0.782-0.359,1.56-0.713,2.338-1.06c6.096-2.727,12.07-5.1,17.865-7.097c1.843-0.635,3.668-1.232,5.473-1.791
				c0.95-0.294,1.893-0.577,2.831-0.849c0.032-0.009,0.063-0.019,0.095-0.027c0.115-0.034,0.231-0.067,0.346-0.1
				c3.511-1.009,6.967-1.909,10.355-2.697c0.111-0.026,0.221-0.052,0.331-0.077c5.787-1.338,11.374-2.352,16.704-3.03
				c0.189-0.024,0.376-0.048,0.563-0.071c0.986-0.121,1.963-0.231,2.931-0.329l0.001,0c0.028-0.003,0.055-0.006,0.082-0.008
				c0.12-0.012,0.24-0.025,0.359-0.037c5.707-0.561,11.092-0.72,16.05-0.471c8.509,0.426,13.313,1.949,14.635,2.427
				c0.245,0.089,0.37,0.141,0.377,0.144c0.055,0.026,0.12-0.002,0.144-0.057c0.023-0.056-0.002-0.121-0.058-0.144
				c-0.024-0.012-1.408-0.592-4.205-1.212c-2.489-0.552-6.099-1.135-10.865-1.376c-4.988-0.252-10.409-0.091-16.153,0.476
				c-0.124,0.012-0.249,0.024-0.373,0.038c-0.971,0.098-1.951,0.208-2.94,0.33c-0.186,0.023-0.374,0.047-0.561,0.071
				c-5.365,0.681-10.99,1.704-16.818,3.054c-0.059,0.013-0.118,0.027-0.178,0.042c-0.056,0.013-0.113,0.026-0.171,0.04
				c0-0.001,0-0.001-0.001,0c-3.362,0.785-6.789,1.679-10.272,2.678c-0.119,0.034-0.238,0.068-0.357,0.103
				c-0.115,0.033-0.23,0.067-0.346,0.1c-0.936,0.274-1.877,0.557-2.824,0.852c-1.682,0.523-3.38,1.079-5.094,1.669
				c-1.397,0.48-2.807,0.983-4.224,1.507c-0.088,0.032-0.177,0.066-0.266,0.099c-4.485,1.664-9.065,3.544-13.716,5.629
				c-0.777,0.347-1.555,0.702-2.335,1.061c-0.671,0.31-1.344,0.623-2.017,0.94c-0.254,0.12-0.51,0.241-0.764,0.362
				c-0.24,0.114-0.481,0.228-0.721,0.344c-4.842,2.32-9.753,4.854-14.691,7.58c-0.084,0.046-0.169,0.093-0.253,0.14
				c-0.693,0.383-1.386,0.77-2.079,1.161c-0.001,0-0.002,0.001-0.002,0.002c-0.643,0.361-1.285,0.727-1.928,1.095
				c-0.383,0.219-0.767,0.44-1.15,0.662l-0.001,0c-0.107,0.062-0.215,0.124-0.323,0.187c0,0,0,0,0,0.001
				c-0.129,0.074-0.258,0.149-0.387,0.224c-1.382,0.804-2.765,1.622-4.148,2.454c-1.427,0.859-2.81,1.705-4.141,2.533
				c-0.962,0.598-1.898,1.187-2.806,1.765c-0.612,0.388-1.21,0.772-1.796,1.15C350.083,363.707,348.508,364.744,347.05,365.72z"/>
			<path style="fill:#033A3F;" d="M381.077,346.55c0.004,0.002,0.009,0.003,0.013,0.005c9.688,2.702,19.651,4.782,29.611,6.185
				c0.06,0.008,0.115-0.033,0.124-0.093c0.009-0.06-0.033-0.115-0.093-0.124c-9.951-1.401-19.903-3.48-29.582-6.179
				c-0.058-0.016-0.119,0.018-0.135,0.076C380.999,346.474,381.027,346.529,381.077,346.55z"/>
			<path style="fill:#033A3F;" d="M406.85,337.762c6.946,2.92,15.198,4.604,22.615,4.563c0.061,0,0.109-0.05,0.109-0.11
				c0-0.061-0.05-0.109-0.11-0.109c-8.318,0.045-17.692-2.086-25.073-5.701c-0.055-0.025-0.12-0.004-0.147,0.05
				c-0.027,0.054-0.004,0.12,0.05,0.147C405.122,337.007,405.976,337.395,406.85,337.762z"/>
			<path style="fill:#033A3F;" d="M433.911,331.028c3.541,1.489,6.755,2.476,9.729,2.993c0.06,0.01,0.116-0.03,0.127-0.089
				c0.01-0.06-0.029-0.117-0.089-0.127c-4.41-0.767-9.356-2.575-15.122-5.528c-0.053-0.027-0.12-0.006-0.148,0.048
				s-0.006,0.12,0.048,0.148C430.359,329.447,432.174,330.297,433.911,331.028z"/>
			<path style="fill:#033A3F;" d="M455.775,329.136c0.043,0.018,0.095,0.007,0.127-0.031c0.039-0.047,0.032-0.116-0.015-0.154
				c-1.474-1.217-4.787-3.326-6.712-4.135c-0.008-0.003-0.016-0.007-0.024-0.01c-0.056-0.023-0.12,0.003-0.143,0.059
				c-0.023,0.056,0.003,0.12,0.059,0.143c0,0,0,0,0,0c1.905,0.796,5.211,2.899,6.68,4.112
				C455.756,329.127,455.765,329.132,455.775,329.136z"/>
			<path style="fill:#033A3F;" d="M449.067,325.008c0.038,0.016,0.083,0.01,0.116-0.019c0.909-0.81,1.992-1.731,3.038-2.622
				c1.048-0.892,2.132-1.814,3.044-2.626c0.045-0.04,0.049-0.11,0.009-0.155c-0.04-0.045-0.11-0.049-0.155-0.009
				c-0.91,0.811-1.992,1.732-3.04,2.623c-1.048,0.891-2.131,1.813-3.042,2.625c-0.045,0.04-0.049,0.11-0.009,0.155
				C449.039,324.992,449.052,325.002,449.067,325.008z"/>
			<path style="fill:#033A3F;" d="M428.463,328.475c0.043,0.018,0.095,0.007,0.127-0.031c2.274-2.734,5.84-6.271,10.597-10.512
				c0.045-0.04,0.049-0.11,0.009-0.155c-0.04-0.045-0.11-0.049-0.155-0.009c-4.766,4.248-8.339,7.793-10.62,10.536
				c-0.039,0.047-0.032,0.116,0.014,0.154C428.443,328.465,428.453,328.471,428.463,328.475z"/>
			<path style="fill:#033A3F;" d="M405.074,335.381c0.045,0.019,0.099,0.006,0.13-0.035c2.073-2.724,4.323-5.361,6.687-7.837
				c1.045-1.094,2.135-2.181,3.189-3.233c1.76-1.755,3.579-3.569,5.244-5.473c0.04-0.046,0.035-0.115-0.01-0.155
				c-0.046-0.04-0.115-0.035-0.155,0.01c-1.659,1.898-3.476,3.71-5.233,5.462c-1.055,1.052-2.146,2.14-3.193,3.236
				c-2.37,2.482-4.625,5.125-6.703,7.856c-0.037,0.048-0.027,0.117,0.021,0.154C405.058,335.372,405.066,335.377,405.074,335.381z"
				/>
			<path style="fill:#033A3F;" d="M382.464,345.071C382.464,345.072,382.465,345.072,382.464,345.071
				c0.057,0.023,0.121-0.003,0.144-0.059l4.05-9.867c0.654-1.593,1.395-3.398,2.703-4.69c0.043-0.043,0.044-0.112,0.001-0.155
				c-0.043-0.043-0.112-0.043-0.155-0.001c-1.34,1.323-2.09,3.151-2.752,4.763l-4.05,9.867
				C382.382,344.984,382.409,345.048,382.464,345.071z"/>
			<path style="fill:#033A3F;" d="M347.05,365.72c0.082,0.034,0.165,0.067,0.247,0.1c1.458-0.976,3.032-2.012,4.711-3.094
				c0.587-0.377,1.186-0.761,1.798-1.149c0.907-0.576,1.842-1.164,2.802-1.76c1.293-0.803,2.632-1.623,4.015-2.454
				c1.413-0.849,2.825-1.685,4.236-2.505c0.185-0.107,0.37-0.215,0.555-0.321c0.108-0.063,0.216-0.125,0.323-0.187l0.001,0
				c0.344-0.199,0.688-0.397,1.033-0.593c0.643-0.368,1.286-0.734,1.929-1.095c0.001,0,0.002-0.001,0.003-0.001
				c0.652-0.367,1.303-0.73,1.953-1.09c0.042-0.024,0.085-0.047,0.127-0.07c4.722-2.609,9.421-5.044,14.059-7.283
				c0.249-0.121,0.497-0.24,0.747-0.359c0.487-0.234,0.974-0.465,1.46-0.694c0.734-0.346,1.466-0.687,2.196-1.023
				c0.782-0.359,1.56-0.713,2.338-1.06c6.096-2.727,12.07-5.1,17.865-7.097c1.843-0.635,3.668-1.232,5.473-1.791
				c0.95-0.294,1.893-0.577,2.831-0.849c0.032-0.009,0.063-0.019,0.095-0.027c0.115-0.034,0.231-0.067,0.346-0.1
				c3.511-1.009,6.967-1.909,10.355-2.697c0.111-0.026,0.221-0.052,0.331-0.077c5.787-1.338,11.374-2.352,16.704-3.03
				c0.189-0.024,0.376-0.048,0.563-0.071c0.986-0.121,1.963-0.231,2.931-0.329l0.001,0c0.028-0.003,0.055-0.006,0.082-0.008
				c0.12-0.012,0.24-0.025,0.359-0.037c5.707-0.561,11.092-0.72,16.05-0.471c8.509,0.426,13.313,1.949,14.635,2.427
				c0.245,0.089,0.37,0.141,0.377,0.144c0.055,0.026,0.12-0.002,0.144-0.057c0.023-0.056-0.002-0.121-0.058-0.144
				c-0.024-0.012-1.408-0.592-4.205-1.212c-2.489-0.552-6.099-1.135-10.865-1.376c-4.988-0.252-10.409-0.091-16.153,0.476
				c-0.124,0.012-0.249,0.024-0.373,0.038c-0.971,0.098-1.951,0.208-2.94,0.33c-0.186,0.023-0.374,0.047-0.561,0.071
				c-5.365,0.681-10.99,1.704-16.818,3.054c-0.059,0.013-0.118,0.027-0.178,0.042c-0.056,0.013-0.113,0.026-0.171,0.04
				c0-0.001,0-0.001-0.001,0c-3.362,0.785-6.789,1.679-10.272,2.678c-0.119,0.034-0.238,0.068-0.357,0.103
				c-0.115,0.033-0.23,0.067-0.346,0.1c-0.936,0.274-1.877,0.557-2.824,0.852c-1.682,0.523-3.38,1.079-5.094,1.669
				c-1.397,0.48-2.807,0.983-4.224,1.507c-0.088,0.032-0.177,0.066-0.266,0.099c-4.485,1.664-9.065,3.544-13.716,5.629
				c-0.777,0.347-1.555,0.702-2.335,1.061c-0.671,0.31-1.344,0.623-2.017,0.94c-0.254,0.12-0.51,0.241-0.764,0.362
				c-0.24,0.114-0.481,0.228-0.721,0.344c-4.842,2.32-9.753,4.854-14.691,7.58c-0.084,0.046-0.169,0.093-0.253,0.14
				c-0.693,0.383-1.386,0.77-2.079,1.161c-0.001,0-0.002,0.001-0.002,0.002c-0.643,0.361-1.285,0.727-1.928,1.095
				c-0.383,0.219-0.767,0.44-1.15,0.662l-0.001,0c-0.107,0.062-0.215,0.124-0.323,0.187c0,0,0,0,0,0.001
				c-0.129,0.074-0.258,0.149-0.387,0.224c-1.382,0.804-2.765,1.622-4.148,2.454c-1.427,0.859-2.81,1.705-4.141,2.533
				c-0.962,0.598-1.898,1.187-2.806,1.765c-0.612,0.388-1.21,0.772-1.796,1.15C350.083,363.707,348.508,364.744,347.05,365.72z"/>
		</g>
		<g>
			<path style="fill:#027369;" d="M132.316,191.494c-1.951-0.881-4.051-1.783-6.16-1.417c-2.109,0.366-4.018,2.603-3.208,4.585
				c0.568,1.389,2.134,2.041,3.563,2.5c7.45,2.392,15.363,3.331,23.166,2.75C149.676,199.912,137.836,193.987,132.316,191.494z"/>
			<path style="fill:#027369;" d="M148.608,198.652c-4.48-4.7-5.131-11.762-5.462-18.247c-0.138-2.709,0.132-6.086,2.63-7.14
				c1.995-0.842,4.378,0.505,5.406,2.411c1.027,1.906,1.031,4.182,0.931,6.345C151.822,188.283,148.608,198.652,148.608,198.652z"/>
			<path style="fill:#027369;" d="M121.416,178.637c-1.639-0.752-3.358-1.478-5.161-1.459c-1.803,0.019-3.718,0.976-4.31,2.679
				c-0.313,0.9-0.225,1.903,0.084,2.804c0.769,2.24,2.819,3.851,5.04,4.674s4.625,0.973,6.989,1.114
				c4.464,0.267,8.928,0.535,13.391,0.802C137.449,189.251,127,181.199,121.416,178.637z"/>
			<path style="fill:#027369;" d="M136.244,187.318c-4.422-6.618-4.562-15.837-0.344-22.586c0.33-0.527,0.71-1.063,1.272-1.329
				c1.774-0.836,3.394,1.48,3.755,3.408C142.267,173.964,136.244,187.318,136.244,187.318z"/>
			<path style="fill:#027369;" d="M124.994,173.327c-5.088-4.492-10.523-8.59-16.241-12.246c-0.74-0.473-1.527-0.953-2.404-1.009
				c-2.644-0.168-3.862,3.753-2.352,5.93c1.51,2.177,4.342,2.907,6.929,3.479C115.487,170.489,124.994,173.327,124.994,173.327z"/>
			<path style="fill:#027369;" d="M123.703,153.928c0.68-1.798,2.127-3.807,4.015-3.443c1.301,0.251,2.138,1.628,2.216,2.951
				c0.078,1.323-0.424,2.603-0.917,3.833c-1.829,4.56-3.658,9.12-5.487,13.681C123.53,170.949,121.506,159.734,123.703,153.928z"/>
			<path style="fill:#027369;" d="M106.531,151.484c-1.687-1.256-3.537-2.568-5.64-2.561s-4.273,2.083-3.525,4.049
				c0.566,1.487,2.343,2.045,3.898,2.378c4.77,1.02,9.612,1.705,14.478,2.049C115.742,157.399,108.886,153.238,106.531,151.484z"/>
			<path style="fill:#027369;" d="M115.248,154.923c-1.916-6.19-1.695-13.019,0.616-19.072c0.469-1.229,1.203-2.578,2.495-2.83
				c1.507-0.293,2.88,1.211,3.044,2.737c0.164,1.526-0.514,3.003-1.175,4.389C118.085,144.64,115.248,154.923,115.248,154.923z"/>
			<path style="fill:#027369;" d="M111.068,146.28c-1.861-5.136-4.802-9.877-8.575-13.828c-1.259-1.318-2.678-2.588-4.429-3.091
				c-1.752-0.503-3.905-0.02-4.843,1.542c-0.908,1.512-0.402,3.551,0.726,4.907c1.128,1.357,2.751,2.185,4.327,2.978
				C102.534,140.93,111.068,146.28,111.068,146.28z"/>
			<path style="fill:#027369;" d="M106.874,131.816c1.261-5.994,1.237-12.254-0.071-18.238c-0.673-3.079-2.459-6.689-5.611-6.661
				c-2.682,0.024-4.568,2.967-4.505,5.649s1.482,5.114,2.781,7.461C101.576,123.834,106.874,131.816,106.874,131.816z"/>
			<path style="fill:#033A3F;" d="M157.399,204.992c-0.001,0.001-0.001,0.002-0.002,0.003c-0.027,0.054-0.093,0.076-0.147,0.049
				c-0.023-0.011-2.315-1.163-5.901-3.694c-3.307-2.334-8.426-6.355-14.03-12.251c-6.297-6.626-11.911-14.223-16.685-22.579
				c-5.967-10.444-10.633-22.111-13.866-34.677c-0.015-0.059,0.02-0.118,0.079-0.134c0.059-0.015,0.118,0.02,0.133,0.079
				c3.228,12.544,7.885,24.191,13.841,34.616c4.764,8.34,10.366,15.922,16.65,22.536c5.591,5.884,10.698,9.896,13.997,12.225
				c3.575,2.524,5.858,3.671,5.88,3.683C157.401,204.875,157.423,204.938,157.399,204.992z"/>
			<path style="fill:#027369;" d="M157.399,204.992c-0.001,0.001-0.001,0.002-0.002,0.003c-0.027,0.054-0.093,0.076-0.147,0.049
				c-0.023-0.011-2.315-1.163-5.901-3.694c-3.307-2.334-8.426-6.355-14.03-12.251c-6.297-6.626-11.911-14.223-16.685-22.579
				c-5.967-10.444-10.633-22.111-13.866-34.677c-0.015-0.059,0.02-0.118,0.079-0.134c0.059-0.015,0.118,0.02,0.133,0.079
				c3.228,12.544,7.885,24.191,13.841,34.616c4.764,8.34,10.366,15.922,16.65,22.536c5.591,5.884,10.698,9.896,13.997,12.225
				c3.575,2.524,5.858,3.671,5.88,3.683C157.401,204.875,157.423,204.938,157.399,204.992z"/>
		</g>
		<g>
			<path style="fill:#2CBF7B;" d="M129.328,222.73c0.801-0.559,1.527-1.232,2.16-2.033c2.527-3.201,3.32-7.524,2.862-11.576
				c-0.752-6.648-4.545-12.552-8.74-17.764c-15.034-18.679-36.477-31.318-59.723-36.783c11.318,9.956,14.89,25.57,20.053,39.089
				c4.364,11.427,10.833,23.062,21.872,28.333C113.644,224.781,123.468,226.819,129.328,222.73z"/>
			<path style="fill:#033A3F;" d="M142.039,245.06c0.023-0.029,0.031-0.07,0.016-0.107c-5.451-14.075-14.089-26.71-22.443-38.928
				c-2.406-3.519-4.893-7.157-7.519-10.612c-5.731-7.541-12.477-14.738-20.623-22.003c-6.729-6.002-14.517-12.118-23.806-18.699
				c-0.049-0.035-0.119-0.023-0.153,0.026c-0.035,0.049-0.023,0.118,0.026,0.153c9.283,6.576,17.064,12.687,23.787,18.683
				c8.135,7.255,14.872,14.442,20.594,21.972c2.623,3.451,5.109,7.087,7.513,10.603c8.347,12.208,16.978,24.832,22.42,38.883
				c0.022,0.056,0.085,0.085,0.142,0.063C142.012,245.087,142.028,245.075,142.039,245.06z"/>
			<path style="fill:#033A3F;" d="M127.923,217.387c0.015-0.019,0.024-0.043,0.023-0.069c-0.106-8.629-0.988-17.301-2.622-25.775
				c-0.011-0.06-0.069-0.098-0.128-0.087c-0.06,0.011-0.098,0.069-0.087,0.128c1.632,8.461,2.512,17.12,2.618,25.736
				c0.001,0.061,0.05,0.109,0.111,0.108C127.872,217.428,127.903,217.412,127.923,217.387z"/>
			<path style="fill:#033A3F;" d="M114.596,198.938c0.017-0.021,0.026-0.049,0.023-0.078c-0.191-1.985-2.266-17.898-3.262-22.11
				c-0.014-0.059-0.073-0.095-0.132-0.081c-0.059,0.014-0.095,0.073-0.081,0.132c0.994,4.204,3.066,20.098,3.257,22.08
				c0.006,0.06,0.059,0.104,0.12,0.099C114.551,198.976,114.578,198.961,114.596,198.938z"/>
			<path style="fill:#033A3F;" d="M97.228,178.994c0.02-0.025,0.029-0.059,0.021-0.093c-1.152-4.897-3.485-11.528-6.577-15.453
				c-0.038-0.048-0.106-0.056-0.154-0.018c-0.048,0.038-0.056,0.106-0.018,0.154c3.07,3.897,5.389,10.494,6.535,15.368
				c0.014,0.059,0.073,0.095,0.132,0.082C97.192,179.027,97.213,179.013,97.228,178.994z"/>
			<path style="fill:#033A3F;" d="M97.233,179.061c0.011-0.014,0.018-0.03,0.022-0.048c0.011-0.06-0.029-0.117-0.088-0.128
				l-7.784-1.42c-3.74-0.682-7.679-1.866-10.534-3.167c-0.055-0.025-0.12,0-0.145,0.054c-0.025,0.055-0.001,0.12,0.054,0.145
				c2.871,1.308,6.829,2.498,10.586,3.183l7.784,1.42C97.168,179.109,97.208,179.092,97.233,179.061z"/>
			<path style="fill:#033A3F;" d="M114.596,198.938c0.019-0.024,0.027-0.055,0.022-0.087c-0.01-0.06-0.067-0.1-0.127-0.089
				c-5.502,0.956-10.65-0.674-16.101-2.401c-0.751-0.238-1.528-0.484-2.295-0.719c-1.658-0.508-3.531-1.171-5.343-1.813
				c-1.814-0.642-3.69-1.306-5.353-1.816c-0.058-0.018-0.119,0.015-0.137,0.073c-0.018,0.058,0.015,0.119,0.073,0.137
				c1.658,0.508,3.532,1.171,5.344,1.813c1.814,0.642,3.69,1.306,5.352,1.815c0.766,0.235,1.542,0.481,2.293,0.718
				c5.236,1.658,10.65,3.373,16.205,2.408C114.556,198.973,114.579,198.958,114.596,198.938z"/>
			<path style="fill:#033A3F;" d="M127.525,216.708c0.014-0.018,0.023-0.041,0.023-0.065c0.001-0.061-0.046-0.111-0.107-0.112
				c-10.488-0.25-20.945-1.748-31.081-4.454c-0.059-0.016-0.119,0.019-0.134,0.078c-0.016,0.059,0.019,0.119,0.078,0.134
				c10.153,2.71,20.627,4.212,31.132,4.462C127.472,216.751,127.505,216.734,127.525,216.708z"/>
			<path style="fill:#033A3F;" d="M142.039,245.06c0.023-0.029,0.031-0.07,0.016-0.107c-5.451-14.075-14.089-26.71-22.443-38.928
				c-2.406-3.519-4.893-7.157-7.519-10.612c-5.731-7.541-12.477-14.738-20.623-22.003c-6.729-6.002-14.517-12.118-23.806-18.699
				c-0.049-0.035-0.119-0.023-0.153,0.026c-0.035,0.049-0.023,0.118,0.026,0.153c9.283,6.576,17.064,12.687,23.787,18.683
				c8.135,7.255,14.872,14.442,20.594,21.972c2.623,3.451,5.109,7.087,7.513,10.603c8.347,12.208,16.978,24.832,22.42,38.883
				c0.022,0.056,0.085,0.085,0.142,0.063C142.012,245.087,142.028,245.075,142.039,245.06z"/>
		</g>
	</g>
	<g>
		<g>
			<path style="fill:#2CBF7B;" d="M127.695,348.648c-1.121,0.756-2.176,1.632-3.157,2.533
				c-13.674,12.562-19.062,31.456-15.918,49.52c17.342-1.443,34.027-14.367,40.973-30.035c1.483-3.346,2.6-7.083,1.729-10.638
				c-1.014-4.136-4.478-7.162-7.881-9.721c-2.587-1.945-5.447-3.859-8.681-3.998C132.216,346.2,129.837,347.204,127.695,348.648z"/>
			<path style="fill:#033A3F;" d="M156.18,336.543c-0.005,0.01-0.012,0.019-0.021,0.028c-9.495,9.225-18.311,19.329-26.203,30.032
				c-7.892,10.703-14.938,22.112-20.944,33.91c-0.031,0.057-0.094,0.075-0.147,0.048c-0.054-0.027-0.075-0.093-0.048-0.147
				c6.01-11.809,13.064-23.228,20.962-33.94c7.899-10.713,16.723-20.826,26.227-30.059c0.044-0.042,0.113-0.041,0.155,0.002
				C156.195,336.45,156.201,336.502,156.18,336.543z"/>
			<path style="fill:#033A3F;" d="M118.079,398.7c-0.021,0.04-0.066,0.065-0.114,0.057c-0.06-0.009-0.101-0.065-0.092-0.125
				l0.369-2.423c0.756-4.967,1.165-9.948,1.183-14.404c0-0.061,0.05-0.11,0.11-0.109c0.061,0,0.109,0.05,0.109,0.11
				c-0.018,4.467-0.429,9.459-1.186,14.436l-0.369,2.423C118.088,398.678,118.084,398.69,118.079,398.7z"/>
			<path style="fill:#033A3F;" d="M128.57,394.089c-0.024,0.046-0.078,0.07-0.129,0.054c-0.058-0.018-0.09-0.079-0.073-0.137
				c0.549-1.796,0.658-4.008,0.753-5.961c0.022-0.449,0.043-0.873,0.068-1.29c0.365-5.986,0.6-12.921-0.425-18.975
				c-0.01-0.06,0.03-0.116,0.09-0.126c0.06-0.01,0.116,0.03,0.126,0.09c1.029,6.076,0.794,13.027,0.428,19.025
				c-0.025,0.416-0.046,0.839-0.068,1.287c-0.096,1.965-0.205,4.192-0.763,6.014C128.576,394.077,128.573,394.083,128.57,394.089z"
				/>
			<path style="fill:#033A3F;" d="M139.695,385.415c-0.022,0.041-0.068,0.066-0.116,0.057c-0.06-0.011-0.099-0.068-0.089-0.127
				c1.285-7.181,1.372-14.593,1.456-21.762c0.035-2.99,0.075-6.379-1.421-9.219c-0.028-0.053-0.008-0.12,0.046-0.148
				c0.054-0.028,0.12-0.008,0.148,0.046c1.522,2.889,1.482,6.308,1.447,9.324c-0.085,7.178-0.172,14.6-1.46,21.798
				C139.704,385.394,139.701,385.405,139.695,385.415z"/>
			<path style="fill:#033A3F;" d="M119.632,381.857c-0.012,0.023-0.032,0.042-0.059,0.052c-4.255,1.591-8.091,4.132-11.726,7.767
				c-0.043,0.043-0.112,0.043-0.155,0c-0.043-0.043-0.043-0.112,0-0.155c3.658-3.658,7.519-6.215,11.804-7.817
				c0.057-0.021,0.12,0.008,0.141,0.064C119.649,381.798,119.646,381.83,119.632,381.857z"/>
			<path style="fill:#033A3F;" d="M128.988,367.84c-0.023,0.044-0.073,0.068-0.123,0.055c-0.393-0.097-4.156,0.608-8.568,1.604
				c-3.69,0.834-8.362,2.002-9.385,2.551c-0.053,0.029-0.12,0.009-0.148-0.045c-0.028-0.053-0.009-0.12,0.045-0.148
				c2.033-1.09,17.179-4.404,18.109-4.175c0.059,0.014,0.095,0.074,0.08,0.133C128.995,367.824,128.992,367.832,128.988,367.84z"/>
			<path style="fill:#033A3F;" d="M140.463,353.815c-0.016,0.03-0.045,0.052-0.081,0.058c-4.577,0.703-9.259,0.977-13.234,1.152
				l-0.097,0.004c-2.536,0.112-5.159,0.227-7.431,1.334c-0.054,0.027-0.12,0.004-0.147-0.051c-0.027-0.054-0.004-0.12,0.05-0.147
				c2.313-1.127,4.959-1.244,7.518-1.356l0.097-0.004c3.97-0.175,8.644-0.448,13.211-1.15c0.06-0.009,0.116,0.032,0.125,0.092
				C140.478,353.771,140.474,353.795,140.463,353.815z"/>
			<path style="fill:#033A3F;" d="M156.18,336.543c-0.005,0.01-0.012,0.019-0.021,0.028c-9.521,9.249-18.384,19.397-26.344,30.162
				c-8.001,10.821-15.094,22.273-21.084,34.04c0,0,0,0.001-0.001,0.001c-0.028,0.053-0.093,0.074-0.147,0.047
				c-0.054-0.027-0.075-0.093-0.048-0.147c5.994-11.777,13.095-23.241,21.103-34.071c7.967-10.775,16.838-20.932,26.367-30.189
				c0.044-0.042,0.113-0.041,0.155,0.002C156.195,336.45,156.201,336.502,156.18,336.543z"/>
		</g>
		<g>
			<path style="fill:#2CBF7B;" d="M114.426,336.031c0.016,0.976-0.104,1.959-0.383,2.941c-1.115,3.923-4.155,7.097-7.709,9.098
				c-5.829,3.283-12.836,3.665-19.517,3.316c-23.945-1.251-46.746-11.233-64.787-26.878c14.698,3.346,29.447-2.901,43.429-6.631
				c11.819-3.153,25.038-4.721,35.774,1.141C106.906,322.116,114.309,328.886,114.426,336.031z"/>
			<path style="fill:#033A3F;" d="M139.97,333.261c-0.01,0.036-0.039,0.066-0.078,0.076c-14.602,3.823-29.902,4.217-44.698,4.599
				c-4.261,0.11-8.667,0.224-13.006,0.118c-9.469-0.231-19.253-1.485-29.912-3.835c-8.805-1.941-18.323-4.673-29.097-8.351
				c-0.057-0.02-0.088-0.083-0.068-0.139c0.02-0.057,0.082-0.088,0.139-0.068c10.766,3.675,20.276,6.404,29.074,8.344
				c10.645,2.347,20.416,3.6,29.87,3.83c4.333,0.105,8.736-0.008,12.995-0.118c14.784-0.381,30.071-0.776,44.648-4.592
				c0.059-0.015,0.119,0.02,0.134,0.078C139.976,333.223,139.976,333.243,139.97,333.261z"/>
			<path style="fill:#033A3F;" d="M109.271,338.02c-0.007,0.023-0.021,0.044-0.042,0.059c-7.057,4.967-14.604,9.329-22.43,12.966
				c-0.055,0.026-0.12,0.002-0.146-0.053c-0.026-0.055-0.002-0.12,0.053-0.146c7.815-3.632,15.35-7.988,22.396-12.947
				c0.049-0.035,0.118-0.023,0.153,0.027C109.275,337.955,109.28,337.99,109.271,338.02z"/>
			<path style="fill:#033A3F;" d="M86.512,338.019c-0.007,0.026-0.025,0.05-0.05,0.064c-1.721,1.007-15.836,8.642-19.833,10.301
				c-0.056,0.023-0.12-0.003-0.143-0.059c-0.023-0.056,0.003-0.12,0.059-0.143c3.99-1.656,18.088-9.282,19.807-10.288
				c0.052-0.031,0.119-0.013,0.15,0.039C86.517,337.96,86.52,337.991,86.512,338.019z"/>
			<path style="fill:#033A3F;" d="M60.176,335.617c-0.009,0.031-0.031,0.058-0.063,0.071c-4.644,1.933-11.385,3.925-16.378,3.717
				c-0.061-0.003-0.107-0.054-0.105-0.114c0.003-0.061,0.054-0.107,0.114-0.105c4.957,0.207,11.662-1.776,16.285-3.7
				c0.056-0.023,0.12,0.003,0.143,0.059C60.181,335.569,60.182,335.594,60.176,335.617z"/>
			<path style="fill:#033A3F;" d="M60.233,335.581c-0.005,0.017-0.013,0.032-0.026,0.046c-0.042,0.044-0.111,0.045-0.155,0.003
				l-5.708-5.479c-2.743-2.633-6.009-5.132-8.735-6.686c-0.053-0.03-0.07-0.097-0.041-0.15c0.03-0.053,0.097-0.071,0.15-0.041
				c2.741,1.562,6.023,4.073,8.779,6.718l5.708,5.479C60.234,335.501,60.244,335.543,60.233,335.581z"/>
			<path style="fill:#033A3F;" d="M86.512,338.019c-0.008,0.029-0.028,0.054-0.057,0.068c-0.054,0.027-0.12,0.004-0.147-0.05
				c-2.446-5.02-6.783-8.239-11.374-11.647c-0.633-0.47-1.287-0.955-1.927-1.44c-1.383-1.047-3.017-2.177-4.598-3.27
				c-1.583-1.095-3.22-2.227-4.606-3.276c-0.048-0.036-0.058-0.105-0.021-0.154c0.037-0.048,0.105-0.058,0.154-0.021
				c1.383,1.047,3.018,2.177,4.599,3.271c1.583,1.095,3.219,2.226,4.606,3.276c0.639,0.484,1.293,0.969,1.925,1.438
				c4.41,3.274,8.971,6.659,11.44,11.727C86.518,337.966,86.52,337.994,86.512,338.019z"/>
			<path style="fill:#033A3F;" d="M108.488,338.096c-0.006,0.022-0.02,0.042-0.039,0.057c-0.048,0.037-0.117,0.027-0.154-0.021
				c-6.343-8.356-13.681-15.956-21.809-22.588c-0.047-0.038-0.054-0.107-0.016-0.154c0.038-0.047,0.107-0.054,0.154-0.016
				c8.142,6.643,15.492,14.255,21.845,22.625C108.492,338.028,108.498,338.064,108.488,338.096z"/>
			<path style="fill:#033A3F;" d="M139.97,333.261c-0.01,0.036-0.039,0.066-0.078,0.076c-14.602,3.823-29.902,4.217-44.698,4.599
				c-4.261,0.11-8.667,0.224-13.006,0.118c-9.469-0.231-19.253-1.485-29.912-3.835c-8.805-1.941-18.323-4.673-29.097-8.351
				c-0.057-0.02-0.088-0.083-0.068-0.139c0.02-0.057,0.082-0.088,0.139-0.068c10.766,3.675,20.276,6.404,29.074,8.344
				c10.645,2.347,20.416,3.6,29.87,3.83c4.333,0.105,8.736-0.008,12.995-0.118c14.784-0.381,30.071-0.776,44.648-4.592
				c0.059-0.015,0.119,0.02,0.134,0.078C139.976,333.223,139.976,333.243,139.97,333.261z"/>
		</g>
		<g>
			<path style="fill:#027369;" d="M145.145,340.541c-18.442-8.826-41.143-4.442-58.323,6.64s-29.751,27.953-40.771,45.173
				c7.391-7.56,16.653-13.278,26.724-16.498c13.829-4.421,28.738-4.112,42.839-7.569s28.561-12.448,31.435-26.679L145.145,340.541z"
				/>
			<path style="fill:#033A3F;" d="M173.727,337.191c-0.042,0.078-0.085,0.156-0.126,0.234c-1.746,0.176-3.619,0.379-5.603,0.614
				c-0.693,0.082-1.399,0.168-2.118,0.258c-1.066,0.133-2.161,0.275-3.282,0.427c-1.508,0.204-3.063,0.424-4.658,0.663
				c-1.63,0.244-3.251,0.5-4.861,0.766c-0.211,0.035-0.422,0.07-0.632,0.105c-0.123,0.02-0.246,0.041-0.368,0.062l-0.001,0
				c-0.392,0.066-0.783,0.132-1.174,0.2c-0.73,0.126-1.459,0.253-2.185,0.384c-0.001,0-0.002,0.001-0.003,0.001
				c-0.736,0.132-1.469,0.267-2.2,0.403c-0.048,0.009-0.096,0.018-0.143,0.027c-5.303,0.995-10.476,2.109-15.478,3.336
				c-0.268,0.065-0.536,0.132-0.805,0.199c-0.525,0.13-1.047,0.262-1.568,0.394c-0.786,0.2-1.568,0.404-2.344,0.61
				c-0.831,0.221-1.657,0.444-2.478,0.671c-6.437,1.778-12.554,3.752-18.295,5.902c-1.826,0.683-3.613,1.385-5.36,2.104
				c-0.919,0.378-1.827,0.76-2.724,1.148c-0.03,0.013-0.06,0.026-0.09,0.039c-0.11,0.047-0.221,0.096-0.33,0.143
				c-3.35,1.458-6.588,2.964-9.703,4.513c-0.102,0.051-0.204,0.101-0.305,0.151c-5.314,2.652-10.268,5.428-14.81,8.298
				c-0.161,0.101-0.32,0.203-0.479,0.304c-0.837,0.534-1.661,1.072-2.47,1.612l-0.001,0c-0.023,0.015-0.046,0.031-0.068,0.046
				c-0.1,0.067-0.201,0.133-0.3,0.201c-4.758,3.201-9.012,6.507-12.677,9.856c-6.29,5.746-9.025,9.98-9.74,11.189
				c-0.133,0.225-0.196,0.345-0.199,0.352c-0.026,0.055-0.094,0.075-0.148,0.047c-0.053-0.028-0.075-0.094-0.047-0.148
				c0.011-0.024,0.709-1.353,2.471-3.612c1.568-2.011,3.98-4.759,7.502-7.978c3.686-3.37,7.968-6.698,12.759-9.917
				c0.104-0.069,0.207-0.14,0.312-0.209c0.811-0.543,1.637-1.082,2.477-1.617c0.158-0.101,0.318-0.202,0.478-0.303
				c4.57-2.89,9.559-5.684,14.913-8.353c0.054-0.027,0.109-0.054,0.164-0.081c0.052-0.026,0.104-0.052,0.157-0.078
				c-0.001,0-0.001,0,0-0.001c3.092-1.535,6.304-3.028,9.626-4.475c0.113-0.049,0.227-0.099,0.341-0.148
				c0.11-0.048,0.22-0.095,0.33-0.143c0.896-0.385,1.802-0.765,2.72-1.141c1.63-0.668,3.294-1.32,4.991-1.957
				c1.384-0.519,2.79-1.029,4.217-1.527c0.089-0.031,0.178-0.062,0.268-0.093c4.518-1.573,9.246-3.039,14.16-4.392
				c0.82-0.227,1.646-0.449,2.476-0.669c0.715-0.188,1.433-0.375,2.154-0.559c0.272-0.069,0.546-0.139,0.82-0.207
				c0.257-0.065,0.516-0.13,0.775-0.194c5.211-1.294,10.611-2.467,16.154-3.508c0.094-0.018,0.189-0.036,0.284-0.053
				c0.778-0.146,1.559-0.289,2.342-0.429c0.001,0,0.002-0.001,0.003,0c0.726-0.13,1.454-0.258,2.184-0.383
				c0.435-0.075,0.872-0.149,1.308-0.222l0.001,0c0.122-0.021,0.245-0.041,0.368-0.062c0,0,0,0,0.001,0
				c0.146-0.025,0.294-0.049,0.441-0.074c1.578-0.26,3.165-0.509,4.761-0.749c1.647-0.247,3.252-0.474,4.806-0.683
				c1.123-0.151,2.219-0.293,3.287-0.426c0.719-0.09,1.425-0.175,2.117-0.257C170.107,337.569,171.982,337.367,173.727,337.191z"/>
			<path style="fill:#033A3F;" d="M135.284,344.073c-0.002,0.004-0.005,0.008-0.007,0.012c-5.751,8.252-12.108,16.199-18.896,23.622
				c-0.041,0.045-0.11,0.048-0.155,0.007c-0.045-0.041-0.048-0.11-0.007-0.155c6.781-7.416,13.132-15.356,18.877-23.599
				c0.035-0.05,0.103-0.062,0.153-0.027C135.295,343.964,135.309,344.025,135.284,344.073z"/>
			<path style="fill:#033A3F;" d="M109.814,353.706c-3.497,6.674-8.788,13.226-14.533,17.918c-0.047,0.038-0.116,0.031-0.154-0.016
				c-0.038-0.047-0.031-0.116,0.016-0.154c6.443-5.261,12.314-12.873,15.705-20.361c0.027-0.054,0.09-0.08,0.145-0.055
				c0.055,0.025,0.08,0.09,0.055,0.145C110.666,352.023,110.254,352.866,109.814,353.706z"/>
			<path style="fill:#033A3F;" d="M84.659,365.742c-1.783,3.403-3.633,6.21-5.596,8.502c-0.039,0.046-0.109,0.051-0.155,0.012
				c-0.046-0.039-0.052-0.109-0.012-0.155c2.912-3.399,5.575-7.943,8.141-13.891c0.023-0.054,0.088-0.081,0.144-0.057
				c0.056,0.024,0.081,0.089,0.057,0.144C86.391,362.262,85.533,364.073,84.659,365.742z"/>
			<path style="fill:#033A3F;" d="M66.595,378.205c-0.022,0.042-0.069,0.066-0.118,0.057c-0.059-0.011-0.098-0.069-0.087-0.128
				c0.362-1.877,1.574-5.613,2.543-7.462c0.004-0.008,0.008-0.015,0.012-0.023c0.028-0.054,0.095-0.074,0.148-0.046
				c0.054,0.028,0.074,0.094,0.046,0.148c0,0,0,0,0,0c-0.962,1.826-2.173,5.554-2.533,7.424
				C66.604,378.185,66.6,378.195,66.595,378.205z"/>
			<path style="fill:#033A3F;" d="M69.139,370.75c-0.019,0.036-0.058,0.06-0.101,0.059c-1.217-0.046-2.638-0.067-4.012-0.087
				c-1.376-0.02-2.799-0.041-4.019-0.087c-0.06-0.002-0.108-0.053-0.105-0.114c0.002-0.06,0.053-0.108,0.114-0.105
				c1.218,0.046,2.639,0.067,4.014,0.087c1.375,0.02,2.798,0.041,4.017,0.087c0.06,0.002,0.108,0.053,0.105,0.114
				C69.151,370.72,69.147,370.736,69.139,370.75z"/>
			<path style="fill:#033A3F;" d="M87.235,360.305c-0.022,0.042-0.069,0.066-0.117,0.057c-3.495-0.661-8.496-1.118-14.865-1.359
				c-0.06-0.002-0.108-0.053-0.105-0.114c0.002-0.06,0.053-0.108,0.114-0.105c6.38,0.241,11.392,0.7,14.897,1.363
				c0.06,0.011,0.099,0.069,0.087,0.128C87.244,360.285,87.24,360.296,87.235,360.305z"/>
			<path style="fill:#033A3F;" d="M109.667,350.739c-0.023,0.043-0.072,0.068-0.122,0.056c-3.333-0.781-6.747-1.382-10.146-1.786
				c-1.502-0.179-3.035-0.323-4.517-0.462c-2.474-0.233-5.032-0.473-7.528-0.882c-0.06-0.01-0.1-0.066-0.09-0.126
				c0.01-0.06,0.066-0.1,0.126-0.091c2.488,0.407,5.043,0.647,7.513,0.88c1.484,0.14,3.018,0.284,4.523,0.463
				c3.408,0.405,6.829,1.008,10.17,1.79c0.059,0.014,0.096,0.073,0.082,0.132C109.674,350.722,109.671,350.731,109.667,350.739z"/>
			<path style="fill:#033A3F;" d="M133.272,343.816C133.272,343.816,133.272,343.816,133.272,343.816
				c-0.029,0.054-0.095,0.074-0.149,0.046l-9.406-5.03c-1.518-0.812-3.239-1.732-5.071-1.895c-0.06-0.005-0.105-0.059-0.1-0.119
				c0.006-0.06,0.059-0.105,0.119-0.099c1.876,0.167,3.618,1.099,5.155,1.921l9.406,5.03
				C133.28,343.697,133.3,343.763,133.272,343.816z"/>
			<path style="fill:#033A3F;" d="M173.727,337.191c-0.042,0.078-0.085,0.156-0.126,0.234c-1.746,0.176-3.619,0.379-5.603,0.614
				c-0.693,0.082-1.399,0.168-2.118,0.258c-1.066,0.133-2.161,0.275-3.282,0.427c-1.508,0.204-3.063,0.424-4.658,0.663
				c-1.63,0.244-3.251,0.5-4.861,0.766c-0.211,0.035-0.422,0.07-0.632,0.105c-0.123,0.02-0.246,0.041-0.368,0.062l-0.001,0
				c-0.392,0.066-0.783,0.132-1.174,0.2c-0.73,0.126-1.459,0.253-2.185,0.384c-0.001,0-0.002,0.001-0.003,0.001
				c-0.736,0.132-1.469,0.267-2.2,0.403c-0.048,0.009-0.096,0.018-0.143,0.027c-5.303,0.995-10.476,2.109-15.478,3.336
				c-0.268,0.065-0.536,0.132-0.805,0.199c-0.525,0.13-1.047,0.262-1.568,0.394c-0.786,0.2-1.568,0.404-2.344,0.61
				c-0.831,0.221-1.657,0.444-2.478,0.671c-6.437,1.778-12.554,3.752-18.295,5.902c-1.826,0.683-3.613,1.385-5.36,2.104
				c-0.919,0.378-1.827,0.76-2.724,1.148c-0.03,0.013-0.06,0.026-0.09,0.039c-0.11,0.047-0.221,0.096-0.33,0.143
				c-3.35,1.458-6.588,2.964-9.703,4.513c-0.102,0.051-0.204,0.101-0.305,0.151c-5.314,2.652-10.268,5.428-14.81,8.298
				c-0.161,0.101-0.32,0.203-0.479,0.304c-0.837,0.534-1.661,1.072-2.47,1.612l-0.001,0c-0.023,0.015-0.046,0.031-0.068,0.046
				c-0.1,0.067-0.201,0.133-0.3,0.201c-4.758,3.201-9.012,6.507-12.677,9.856c-6.29,5.746-9.025,9.98-9.74,11.189
				c-0.133,0.225-0.196,0.345-0.199,0.352c-0.026,0.055-0.094,0.075-0.148,0.047c-0.053-0.028-0.075-0.094-0.047-0.148
				c0.011-0.024,0.709-1.353,2.471-3.612c1.568-2.011,3.98-4.759,7.502-7.978c3.686-3.37,7.968-6.698,12.759-9.917
				c0.104-0.069,0.207-0.14,0.312-0.209c0.811-0.543,1.637-1.082,2.477-1.617c0.158-0.101,0.318-0.202,0.478-0.303
				c4.57-2.89,9.559-5.684,14.913-8.353c0.054-0.027,0.109-0.054,0.164-0.081c0.052-0.026,0.104-0.052,0.157-0.078
				c-0.001,0-0.001,0,0-0.001c3.092-1.535,6.304-3.028,9.626-4.475c0.113-0.049,0.227-0.099,0.341-0.148
				c0.11-0.048,0.22-0.095,0.33-0.143c0.896-0.385,1.802-0.765,2.72-1.141c1.63-0.668,3.294-1.32,4.991-1.957
				c1.384-0.519,2.79-1.029,4.217-1.527c0.089-0.031,0.178-0.062,0.268-0.093c4.518-1.573,9.246-3.039,14.16-4.392
				c0.82-0.227,1.646-0.449,2.476-0.669c0.715-0.188,1.433-0.375,2.154-0.559c0.272-0.069,0.546-0.139,0.82-0.207
				c0.257-0.065,0.516-0.13,0.775-0.194c5.211-1.294,10.611-2.467,16.154-3.508c0.094-0.018,0.189-0.036,0.284-0.053
				c0.778-0.146,1.559-0.289,2.342-0.429c0.001,0,0.002-0.001,0.003,0c0.726-0.13,1.454-0.258,2.184-0.383
				c0.435-0.075,0.872-0.149,1.308-0.222l0.001,0c0.122-0.021,0.245-0.041,0.368-0.062c0,0,0,0,0.001,0
				c0.146-0.025,0.294-0.049,0.441-0.074c1.578-0.26,3.165-0.509,4.761-0.749c1.647-0.247,3.252-0.474,4.806-0.683
				c1.123-0.151,2.219-0.293,3.287-0.426c0.719-0.09,1.425-0.175,2.117-0.257C170.107,337.569,171.982,337.367,173.727,337.191z"/>
		</g>
		<g>
			<path style="fill:#027369;" d="M116.186,298.838c-1.626-1.392-3.334-2.91-3.899-4.975s0.65-4.743,2.788-4.851
				c1.498-0.076,2.754,1.065,3.776,2.164c5.329,5.729,9.54,12.494,12.328,19.805C131.179,310.98,120.787,302.777,116.186,298.838z"
				/>
			<path style="fill:#027369;" d="M129.586,310.548c-6.157-2.06-12.828,0.35-18.839,2.804c-2.511,1.025-5.454,2.704-5.347,5.414
				c0.085,2.164,2.316,3.75,4.478,3.87s4.224-0.843,6.14-1.852C121.563,317.861,129.586,310.548,129.586,310.548z"/>
			<path style="fill:#027369;" d="M99.917,294.43c-1.377-1.164-2.764-2.412-3.513-4.052c-0.749-1.64-0.695-3.78,0.595-5.039
				c0.682-0.665,1.627-1.012,2.574-1.115c2.354-0.255,4.683,0.917,6.371,2.578c1.688,1.661,2.845,3.774,3.977,5.854
				c2.138,3.928,4.276,7.855,6.413,11.783C116.336,304.438,104.608,298.397,99.917,294.43z"/>
			<path style="fill:#027369;" d="M114.073,304.168c-7.869-1.193-16.275,2.595-20.594,9.281c-0.338,0.523-0.661,1.094-0.663,1.716
				c-0.004,1.961,2.782,2.444,4.68,1.952C104.542,315.292,114.073,304.168,114.073,304.168z"/>
			<path style="fill:#027369;" d="M96.63,299.924c-6.227-2.699-12.246-5.879-17.984-9.503c-0.743-0.469-1.511-0.977-1.934-1.748
				c-1.275-2.323,1.757-5.09,4.37-4.647c2.612,0.443,4.476,2.697,6.092,4.796C90.023,292.523,96.63,299.924,96.63,299.924z"/>
			<path style="fill:#027369;" d="M78.518,306.994c-1.339,1.379-2.543,3.543-1.412,5.097c0.779,1.072,2.382,1.244,3.613,0.753
				c1.231-0.491,2.177-1.489,3.08-2.458c3.352-3.593,6.704-7.185,10.055-10.778C93.854,299.609,82.842,302.539,78.518,306.994z"/>
			<path style="fill:#027369;" d="M69.012,292.485c-1.853-0.994-3.827-2.111-4.713-4.018c-0.886-1.907,0.071-4.753,2.169-4.911
				c1.586-0.119,2.846,1.252,3.808,2.52c2.949,3.886,5.626,7.978,8.004,12.237C78.279,298.313,71.601,293.873,69.012,292.485z"/>
			<path style="fill:#027369;" d="M75.828,298.917c-6.417,0.894-12.506,3.994-17.005,8.657c-0.913,0.947-1.823,2.184-1.502,3.46
				c0.374,1.489,2.319,2.094,3.771,1.594c1.452-0.5,2.501-1.741,3.475-2.927C67.724,305.852,75.828,298.917,75.828,298.917z"/>
			<path style="fill:#027369;" d="M66.229,298.803c-5.44,0.496-10.982-0.153-16.161-1.891c-1.728-0.58-3.481-1.325-4.68-2.697
				c-1.199-1.372-1.677-3.527-0.661-5.04c0.984-1.464,3.044-1.872,4.751-1.427c1.707,0.445,3.147,1.562,4.534,2.653
				C57.761,293.349,66.229,298.803,66.229,298.803z"/>
			<path style="fill:#027369;" d="M51.352,301.148c-4.891,3.687-10.569,6.324-16.542,7.681c-3.074,0.698-7.1,0.615-8.413-2.251
				c-1.118-2.438,0.746-5.395,3.201-6.477c2.455-1.082,5.26-0.83,7.936-0.651C41.876,299.742,51.352,301.148,51.352,301.148z"/>
			<path style="fill:#033A3F;" d="M139.059,315.814c0.001-0.001,0.002-0.002,0.002-0.003c0.038-0.047,0.03-0.116-0.018-0.154
				c-0.02-0.016-2.036-1.602-5.85-3.774c-3.518-2.003-9.332-4.93-17.049-7.499c-8.673-2.887-17.935-4.743-27.528-5.517
				c-11.99-0.967-24.534-0.236-37.283,2.173c-0.06,0.011-0.099,0.069-0.087,0.128c0.011,0.059,0.069,0.099,0.128,0.087
				c12.728-2.405,25.249-3.135,37.217-2.17c9.574,0.771,18.817,2.623,27.473,5.503c7.701,2.563,13.502,5.482,17.013,7.48
				c3.803,2.165,5.811,3.744,5.831,3.76C138.954,315.866,139.021,315.859,139.059,315.814z"/>
			<path style="fill:#027369;" d="M139.059,315.814c0.001-0.001,0.002-0.002,0.002-0.003c0.038-0.047,0.03-0.116-0.018-0.154
				c-0.02-0.016-2.036-1.602-5.85-3.774c-3.518-2.003-9.332-4.93-17.049-7.499c-8.673-2.887-17.935-4.743-27.528-5.517
				c-11.99-0.967-24.534-0.236-37.283,2.173c-0.06,0.011-0.099,0.069-0.087,0.128c0.011,0.059,0.069,0.099,0.128,0.087
				c12.728-2.405,25.249-3.135,37.217-2.17c9.574,0.771,18.817,2.623,27.473,5.503c7.701,2.563,13.502,5.482,17.013,7.48
				c3.803,2.165,5.811,3.744,5.831,3.76C138.954,315.866,139.021,315.859,139.059,315.814z"/>
		</g>
	</g>
	<g>
		<g>
			<path style="fill:#E3FBFF;" d="M391.567,216.691c-39.43-27.229-119.801-44.197-162.794-82.809s-121.655,13.41-131.06,94.307
				c-9.405,80.898,21.828,155,80.417,179.292h204.84C443.139,348.405,430.997,243.921,391.567,216.691z"/>
		</g>
		<g>
			<path style="fill:#E3FBFF;" d="M263.205,132.997c34.16,33.288,122.219,71.867,119.838,39.372
				C379.094,118.469,239.307,109.708,263.205,132.997z"/>
		</g>
		<g>
			<defs>
				<path id="SVGID_1_" d="M390.152,217.109c-39.43-27.229-119.801-44.197-162.794-82.809s-121.655,13.41-131.06,94.307
					c-9.405,80.898,21.828,155,80.417,179.292h204.84C441.724,348.823,429.582,244.339,390.152,217.109z"/>
			</defs>
			<clipPath id="SVGID_00000005252872677997327500000012612583202450293417_">
				<use xlink:href="#SVGID_1_"  style="overflow:visible;"/>
			</clipPath>
			<g style="clip-path:url(#SVGID_00000005252872677997327500000012612583202450293417_);">
				<path style="fill:#D1EFF2;" d="M463.2,376.319L463.2,376.319c-1.781,0-3.225,1.444-3.225,3.225v-0.279h-1.1h-0.563
					c-2.43,0-4.712-1.222-6.011-3.275c-1.388-2.195-3.837-3.652-6.626-3.652h-18.033l0,0h-2.323h-3.096v-29.466v-0.086
					c0-3.999-2.522-7.407-6.061-8.725v-3.603l0.559-6.553c0.236-2.767,0.363-5.541,0.379-8.315c0.028-4.623-0.249-9.246-0.83-13.838
					l-2.624-20.746c-0.024-0.193-0.062-0.382-0.11-0.567c-0.022-0.083-0.045-0.166-0.071-0.248
					c-0.063-0.196-0.139-0.386-0.227-0.568c-0.234-0.487-0.552-0.924-0.935-1.292c-0.813-0.783-1.917-1.259-3.121-1.259h0
					c-0.001,0-0.001,0-0.002,0c-0.086,0-0.172,0.003-0.257,0.008c-0.021,0.001-0.042,0.003-0.062,0.004
					c-0.073,0.005-0.146,0.012-0.219,0.021c-0.012,0.001-0.024,0.003-0.036,0.004c-0.181,0.023-0.358,0.057-0.532,0.101c0,0,0,0,0,0
					c0,0,0,0,0,0c-1.755,0.446-3.118,1.925-3.355,3.795l-2.624,20.746c-0.929,7.348-1.08,14.773-0.451,22.153l0.559,6.553v3.603
					c-3.54,1.318-6.061,4.726-6.061,8.725v29.552h-5.154l0,0h-8.157v-59.323v-6.85c0-9.693-4.191-18.913-11.494-25.287l-5.306-4.631
					c-2.334-2.037-3.876-4.799-4.408-7.804l0,0c-0.064-0.364-0.114-0.731-0.148-1.101c-0.003-0.029-0.006-0.058-0.008-0.087
					c-0.006-0.064-0.01-0.128-0.015-0.193c-0.004-0.051-0.007-0.101-0.01-0.152c-0.003-0.054-0.006-0.108-0.009-0.162
					c-0.003-0.067-0.006-0.133-0.008-0.2c-0.001-0.042-0.003-0.083-0.004-0.125c-0.003-0.111-0.005-0.221-0.005-0.332v-0.823
					c2.328-0.166,4.166-2.106,4.166-4.477v-5.359h0.117c0.929,0,1.682-0.753,1.682-1.682v-3.022c0-0.929-0.753-1.682-1.682-1.682
					h-0.117V244.7h0.117c0.929,0,1.682-0.753,1.682-1.682v-3.022c0-0.929-0.753-1.682-1.682-1.682h-0.117v-1.012
					c0-2.48-2.01-4.49-4.49-4.49h-33.849c-2.48,0-4.49,2.01-4.49,4.49v1.012h-0.117c-0.929,0-1.682,0.753-1.682,1.682v3.022
					c0,0.929,0.753,1.682,1.682,1.682h0.117v4.348h-0.117c-0.929,0-1.682,0.753-1.682,1.682v3.022c0,0.929,0.753,1.682,1.682,1.682
					h0.117v5.359c0,2.371,1.838,4.311,4.166,4.477v0.823c0,0.111-0.002,0.222-0.004,0.333c-0.001,0.041-0.003,0.081-0.004,0.122
					c-0.002,0.068-0.005,0.135-0.008,0.203c-0.003,0.053-0.006,0.107-0.009,0.16c-0.003,0.051-0.007,0.103-0.01,0.154
					c-0.005,0.064-0.009,0.127-0.015,0.191c-0.003,0.03-0.006,0.06-0.009,0.09c-0.035,0.369-0.084,0.735-0.148,1.098l0,0
					c-0.532,3.005-2.074,5.767-4.408,7.804l-5.306,4.631c-2.78,2.426-5.107,5.266-6.926,8.386c-0.095,0.163-0.189,0.327-0.281,0.492
					c-0.043,0.076-0.086,0.153-0.128,0.229c-0.112,0.203-0.221,0.407-0.329,0.613c-0.039,0.075-0.078,0.151-0.117,0.227
					c-0.086,0.168-0.171,0.337-0.255,0.507c-0.032,0.064-0.064,0.129-0.096,0.193c-0.103,0.212-0.202,0.424-0.3,0.638
					c-0.036,0.079-0.072,0.158-0.108,0.238c-0.096,0.213-0.19,0.427-0.282,0.642c-0.025,0.058-0.048,0.116-0.073,0.175
					c-0.078,0.186-0.154,0.374-0.229,0.561c-0.03,0.075-0.06,0.15-0.089,0.225c-0.086,0.222-0.171,0.445-0.252,0.669
					c-0.025,0.07-0.05,0.14-0.075,0.209c-0.069,0.192-0.135,0.384-0.2,0.577c-0.02,0.058-0.04,0.116-0.059,0.175
					c-0.077,0.231-0.15,0.464-0.221,0.697c-0.022,0.073-0.044,0.146-0.066,0.218c-0.071,0.238-0.141,0.476-0.207,0.716
					c-0.01,0.036-0.019,0.073-0.029,0.109c-0.059,0.219-0.116,0.439-0.171,0.659c-0.017,0.067-0.033,0.133-0.05,0.2
					c-0.059,0.242-0.115,0.485-0.169,0.729c-0.013,0.058-0.025,0.115-0.037,0.173c-0.047,0.218-0.091,0.437-0.134,0.657
					c-0.009,0.049-0.02,0.098-0.029,0.147c-0.014,0.074-0.027,0.149-0.041,0.224c-0.067-1.384-0.102-2.771-0.102-4.159v-15.696l0,0
					c0-1.742-1.412-3.154-3.154-3.154c-0.088,0-0.176,0.005-0.262,0.012c-0.006,0.001-0.013,0.001-0.019,0.001
					c-1.61,0.142-2.873,1.494-2.873,3.141v15.696c0,8.365-1.223,16.684-3.631,24.695v0c-2.508,8.346-4.112,16.937-4.784,25.625
					c-0.173,2.237-0.32,4.477-0.443,6.717h0c0,0.001,0,0.002,0,0.003c-0.074,1.345-0.138,2.691-0.194,4.038
					c-0.002,0.041-0.003,0.081-0.005,0.122c-0.054,1.318-0.099,2.636-0.136,3.954c-0.002,0.078-0.004,0.157-0.006,0.235
					c-0.015,0.575-0.029,1.15-0.041,1.726c-0.002,0.09-0.004,0.18-0.006,0.269c-0.013,0.631-0.024,1.262-0.033,1.893
					c-0.001,0.09-0.002,0.179-0.003,0.269c-0.007,0.529-0.012,1.059-0.016,1.588c-0.001,0.16-0.003,0.32-0.003,0.479
					c-0.004,0.613-0.006,1.226-0.006,1.839v27.126v4.119c0,2.804,2.273,5.077,5.077,5.077h10.554c0,0,0,0,0,0h4.217
					c1.414,0,2.693-0.579,3.614-1.512c0.058,0.028,0.116,0.057,0.174,0.084c0.032,0.015,0.064,0.03,0.096,0.045
					c0.067,0.031,0.135,0.063,0.203,0.093c0.001,0,0.002,0.001,0.002,0.001c0.165,0.074,0.331,0.144,0.499,0.212
					c0.022,0.009,0.044,0.018,0.066,0.027c0.068,0.027,0.136,0.053,0.205,0.079c0.034,0.013,0.069,0.026,0.103,0.039
					c0.066,0.025,0.133,0.049,0.2,0.073c0.037,0.013,0.073,0.026,0.11,0.039c0.067,0.023,0.134,0.046,0.202,0.069
					c0.035,0.012,0.07,0.023,0.105,0.034c0.07,0.023,0.141,0.045,0.211,0.067c0.022,0.007,0.044,0.013,0.066,0.02
					c0.172,0.052,0.344,0.101,0.519,0.147c0.005,0.001,0.01,0.003,0.015,0.004c0,0,0,0,0,0c1.197,0.312,2.454,0.479,3.749,0.479
					h5.897c0,0,0,0,0,0h2.08h3.113h2.08c0,0,0,0,0,0h19.769c0,0,0,0,0,0h9.947l0,0h4.822h8.157h2.284h30.738h4.79h0.331h0.298h5.121
					h5.578h20.355h0c0.902,0,1.769-0.153,2.575-0.434c0.098-0.034,0.195-0.07,0.291-0.108c0.062-0.025,0.124-0.05,0.186-0.076
					c0.084-0.035,0.167-0.072,0.249-0.111c0.109-0.051,0.216-0.103,0.322-0.158c1.228-0.642,2.265-1.6,3.002-2.765
					c0.457-0.723,1.036-1.342,1.7-1.841c0.197-0.148,0.402-0.286,0.614-0.413c0.053-0.032,0.106-0.062,0.159-0.093
					c1.063-0.601,2.28-0.929,3.538-0.929h0.563h1.1l0,0v-0.279c0,1.781,1.444,3.225,3.225,3.225l0,0
					c1.781,0,3.225-1.444,3.225-3.225v-7.081v-11.95C466.425,377.762,464.981,376.319,463.2,376.319z"/>
				<path style="fill:#D1EFF2;" d="M282.597,331.201H278.2l0-100.216c0-0.857-0.135-1.698-0.394-2.497
					c-0.129-0.399-0.289-0.788-0.478-1.162c-0.441-0.873-1.042-1.668-1.781-2.341l-5.531-5.03c-0.18-0.164-0.353-0.335-0.517-0.513
					c-0.164-0.178-0.32-0.362-0.468-0.553c-0.221-0.286-0.423-0.585-0.605-0.896c-0.182-0.311-0.343-0.633-0.483-0.965
					c-0.093-0.221-0.177-0.447-0.251-0.676c-0.066-0.203-0.122-0.408-0.172-0.616c-0.031-0.127-0.058-0.255-0.083-0.384
					c-0.001-0.005-0.002-0.01-0.003-0.015c-0.025-0.132-0.048-0.265-0.066-0.399l-0.2-1.432h1.182c1.348,0,2.441-1.093,2.441-2.44v0
					c0-1.348-1.093-2.441-2.441-2.441h-0.111l-1.278-12.664c-0.007-0.064-0.015-0.128-0.024-0.192
					c-0.011-0.075-0.025-0.149-0.04-0.222c-0.023-0.113-0.051-0.224-0.083-0.333c-0.036-0.12-0.077-0.238-0.123-0.352
					c-0.023-0.057-0.047-0.114-0.073-0.17c-0.067-0.147-0.144-0.289-0.227-0.425c-0.025-0.04-0.05-0.08-0.076-0.12
					c-0.105-0.159-0.221-0.31-0.347-0.452c-0.058-0.065-0.117-0.129-0.178-0.19c-0.001-0.001-0.003-0.003-0.004-0.004
					c-0.002-0.002-0.005-0.004-0.007-0.007c-0.118-0.116-0.243-0.225-0.375-0.325c-0.024-0.018-0.048-0.036-0.072-0.054
					c-0.067-0.049-0.135-0.096-0.206-0.141c-0.039-0.025-0.078-0.049-0.117-0.073c-0.517-0.308-1.108-0.503-1.738-0.553v-2.419
					c0,0,0,0,0,0v-0.486c0-0.868-0.704-1.572-1.572-1.572h-0.824l0-51.572c0-3.495-0.523-6.971-1.553-10.312l-0.848-2.75
					c-0.041-0.133-0.238-0.104-0.238,0.036v33.295c0,0,0,0,0,0l0,31.303h-0.824c-0.868,0-1.572,0.704-1.572,1.572v0.486v2.419
					c-0.338,0.027-0.665,0.095-0.975,0.2c-0.058,0.02-0.116,0.041-0.173,0.063c-0.114,0.045-0.226,0.095-0.335,0.149
					c-0.163,0.082-0.321,0.175-0.471,0.278c-0.2,0.137-0.387,0.292-0.56,0.462c-0.086,0.085-0.168,0.174-0.247,0.267
					c-0.313,0.371-0.561,0.799-0.725,1.269c-0.021,0.059-0.04,0.118-0.058,0.178c-0.036,0.12-0.066,0.242-0.091,0.367
					c-0.025,0.125-0.044,0.251-0.057,0.38l-1.192,11.807l0,0l-0.087,0.857h-0.111c-1.348,0-2.441,1.093-2.441,2.441v0
					c0,1.348,1.093,2.44,2.441,2.44h1.182l-0.2,1.432c-0.019,0.134-0.041,0.267-0.066,0.399c-0.001,0.005-0.002,0.01-0.003,0.015
					c-0.025,0.129-0.053,0.257-0.083,0.384c-0.389,1.619-1.255,3.091-2.496,4.22l-5.531,5.03c-1.69,1.537-2.653,3.715-2.653,5.999
					l0,95.291l0,0v4.925h-4.397c-2.137,0-3.87,1.733-3.87,3.87s1.732,3.87,3.87,3.87h10.202l0,2.375h0l0,54.948l0,0v1.777h-4.046
					c-2.137,0-3.87,1.733-3.87,3.87s1.733,3.87,3.87,3.87l6.684,0c0,0,0,0,0,0l27.088,0c2.137,0,3.87-1.733,3.87-3.87
					s-1.732-3.87-3.87-3.87h-4.046l0-59.1h0h-12.84h23.042c2.137,0,3.87-1.733,3.87-3.87
					C286.467,332.934,284.734,331.201,282.597,331.201z M243.153,331.201h3.562l0,0H243.153
					C243.153,331.201,243.153,331.201,243.153,331.201z"/>
				<path style="fill:#D1EFF2;" d="M226.082,315.992c-0.021-0.053-0.042-0.105-0.064-0.157c-0.054-0.129-0.11-0.256-0.171-0.381
					c-0.107-0.221-0.223-0.435-0.349-0.644c-0.631-1.043-1.497-1.926-2.526-2.577c-0.77-0.487-1.423-1.113-1.939-1.832
					c-0.112-0.156-0.217-0.317-0.315-0.482c-0.032-0.053-0.062-0.106-0.093-0.159c-0.601-1.063-0.929-2.28-0.929-3.538v-0.563v-1.1
					l0,0h-0.279c1.781,0,3.225-1.444,3.225-3.225v0c0-1.781-1.444-3.225-3.225-3.225h-7.081h-2.66
					c-0.799-9.409-5.684-17.652-12.875-22.948c-4.467-3.29-7.15-8.468-7.15-14.015v-4.972h1.153c2.318,0,4.198-1.879,4.198-4.198
					v-0.804v-3.162h1.791c1.795,0,3.249-1.455,3.249-3.25v-9.108c0-1.795-1.455-3.25-3.249-3.25h-12.446h-49.472
					c-1.795,0-3.25,1.455-3.25,3.25v9.108c0,1.795,1.455,3.25,3.25,3.25h1.791v3.162v0.804c0,2.318,1.879,4.198,4.198,4.198h1.153
					v4.972c0,5.548-2.683,10.726-7.15,14.015c-4.17,3.071-7.565,7.134-9.838,11.84l0,0c0,0,0,0,0,0
					c-0.054,0.113-0.108,0.226-0.161,0.339c-0.01,0.022-0.021,0.044-0.031,0.065c-0.048,0.104-0.096,0.208-0.143,0.312
					c-0.014,0.032-0.029,0.064-0.043,0.096c-0.044,0.099-0.088,0.198-0.131,0.297c-0.017,0.038-0.033,0.076-0.05,0.115
					c-0.041,0.095-0.082,0.191-0.122,0.287c-0.018,0.042-0.036,0.084-0.053,0.127c-0.039,0.094-0.077,0.188-0.115,0.282
					c-0.018,0.045-0.036,0.09-0.054,0.134c-0.037,0.093-0.073,0.186-0.109,0.279c-0.018,0.047-0.036,0.094-0.054,0.141
					c-0.035,0.092-0.07,0.184-0.104,0.277c-0.018,0.048-0.036,0.097-0.053,0.145c-0.034,0.092-0.067,0.184-0.1,0.276
					c-0.017,0.049-0.035,0.099-0.052,0.148c-0.032,0.092-0.064,0.184-0.096,0.277c-0.017,0.05-0.033,0.1-0.05,0.149
					c-0.031,0.093-0.062,0.186-0.092,0.279c-0.016,0.049-0.031,0.099-0.047,0.148c-0.03,0.094-0.06,0.189-0.089,0.283
					c-0.015,0.048-0.029,0.097-0.044,0.145c-0.029,0.096-0.058,0.192-0.086,0.288c-0.013,0.046-0.026,0.091-0.039,0.137
					c-0.029,0.1-0.058,0.2-0.085,0.301c-0.009,0.034-0.019,0.069-0.028,0.103c-0.103,0.378-0.2,0.759-0.289,1.143
					c-0.004,0.019-0.009,0.038-0.014,0.057c-0.022,0.094-0.043,0.189-0.064,0.284c-0.012,0.055-0.025,0.111-0.037,0.166
					c-0.019,0.086-0.036,0.173-0.054,0.259c-0.013,0.064-0.027,0.129-0.04,0.193c-0.017,0.083-0.032,0.165-0.048,0.248
					c-0.013,0.069-0.027,0.138-0.04,0.207c-0.015,0.08-0.029,0.161-0.043,0.241c-0.013,0.072-0.026,0.144-0.038,0.216
					c-0.013,0.079-0.026,0.158-0.039,0.237c-0.012,0.074-0.024,0.148-0.036,0.223c-0.012,0.078-0.024,0.156-0.035,0.234
					c-0.011,0.076-0.022,0.152-0.033,0.229c-0.011,0.077-0.021,0.154-0.031,0.231c-0.01,0.078-0.02,0.156-0.03,0.234
					c-0.01,0.076-0.019,0.153-0.028,0.229c-0.009,0.079-0.018,0.158-0.027,0.238c-0.008,0.076-0.017,0.151-0.024,0.227
					c-0.008,0.081-0.016,0.162-0.024,0.244c-0.007,0.074-0.014,0.149-0.021,0.224c-0.007,0.083-0.014,0.165-0.021,0.248
					c-0.006,0.074-0.012,0.148-0.017,0.221c-0.006,0.085-0.012,0.17-0.017,0.255c-0.005,0.072-0.01,0.144-0.014,0.216
					c-0.005,0.088-0.01,0.177-0.014,0.265c-0.004,0.069-0.007,0.139-0.01,0.208c-0.004,0.093-0.007,0.186-0.011,0.279
					c-0.002,0.065-0.005,0.131-0.007,0.196c-0.003,0.104-0.005,0.208-0.007,0.312c-0.001,0.055-0.003,0.11-0.004,0.164
					c-0.002,0.154-0.003,0.309-0.004,0.463c0,0.005,0,0.01,0,0.015v11.697c-1.068-5.44-1.609-10.976-1.609-16.533v-15.696
					c0-0.272-0.034-0.536-0.099-0.788c-0.017-0.067-0.038-0.134-0.059-0.199c-0.066-0.2-0.152-0.392-0.254-0.572
					c-0.058-0.101-0.12-0.198-0.188-0.292c-0.042-0.058-0.086-0.115-0.132-0.17c-0.579-0.692-1.448-1.132-2.421-1.132
					c-0.088,0-0.176,0.005-0.263,0.012c-0.006,0.001-0.013,0.001-0.019,0.001c-1.61,0.142-2.873,1.494-2.873,3.141v15.696
					c0,8.365-1.223,16.684-3.631,24.695v0c-2.508,8.346-4.112,16.937-4.784,25.625c-0.173,2.237-0.32,4.477-0.443,6.717h0
					c0,0.002,0,0.004,0,0.005c-0.074,1.345-0.138,2.69-0.194,4.035c-0.002,0.041-0.003,0.083-0.005,0.124
					c-0.054,1.317-0.099,2.635-0.136,3.952c-0.002,0.079-0.004,0.158-0.006,0.237c-0.015,0.574-0.029,1.149-0.041,1.723
					c-0.002,0.09-0.004,0.18-0.006,0.271c-0.013,0.631-0.024,1.262-0.033,1.893c-0.001,0.09-0.002,0.179-0.003,0.269
					c-0.007,0.529-0.012,1.059-0.016,1.588c-0.001,0.16-0.002,0.32-0.003,0.479c-0.004,0.613-0.006,1.226-0.006,1.839v2.88h-4.704
					h-2.996l0,0H79.592c-2.789,0-5.237,1.457-6.626,3.652c-1.299,2.053-3.581,3.275-6.011,3.275h-0.563h-1.1v0.279
					c0-1.781-1.444-3.225-3.225-3.225h0c-1.781,0-3.225,1.444-3.225,3.225v11.95v7.081c0,1.781,1.444,3.225,3.225,3.225h0
					c1.781,0,3.225-1.444,3.225-3.225v0.279l0,0h1.1h0.563c1.258,0,2.475,0.328,3.538,0.929c0.053,0.03,0.106,0.061,0.159,0.093
					c0.211,0.127,0.416,0.264,0.614,0.413c0.664,0.5,1.243,1.119,1.7,1.841c0.714,1.129,1.709,2.062,2.886,2.702
					c0.144,0.078,0.29,0.152,0.438,0.221c0.082,0.038,0.165,0.075,0.249,0.111c0.062,0.026,0.124,0.051,0.186,0.076
					c0.083,0.033,0.167,0.064,0.252,0.094c0.818,0.29,1.698,0.448,2.615,0.448h0h20.355h11.328h1.307h4.217h3.483h4.217h10.715
					h11.589h15.262l0,0h18.565h15.826c0.001,0,0.001,0,0.002,0h0c0,0,0,0,0,0c0.249,0,0.496-0.007,0.742-0.021
					c0.141,0.014,0.284,0.021,0.429,0.021h16.932c0,0,0,0,0,0h7.614c1.459,0,2.753-0.702,3.565-1.787
					c0.171-0.228,0.32-0.474,0.445-0.733c0.054-0.111,0.102-0.226,0.146-0.342c0.188-0.493,0.292-1.027,0.292-1.587l0,0v-15.262
					v-35.528v-11.328v-20.355l0,0c0-0.902-0.153-1.769-0.434-2.575C226.156,316.185,226.12,316.088,226.082,315.992z"/>
			</g>
		</g>
	</g>
	<g>
		<g>
			<g id="XMLID_00000147206496894331872400000010559393908959915659_">
				<path style="fill:#72A2BA;" d="M422.647,309.119c-1.891-0.203-3.594,1.183-3.802,3.095c-0.209,1.913,1.155,3.63,3.046,3.833
					c1.891,0.203,3.592-1.184,3.801-3.097C425.9,311.039,424.537,309.323,422.647,309.119z"/>
				<path style="fill:#A5C8E4;" d="M431.621,313.589c-0.571,5.228-5.22,9.015-10.385,8.459c-0.859-0.092-1.678-0.3-2.444-0.603
					c-0.776-0.309-1.499-0.717-2.151-1.21c-2.583-1.941-4.105-5.179-3.726-8.658c0.57-5.227,5.221-9.013,10.387-8.457
					S432.191,308.362,431.621,313.589z M421.891,316.047c1.891,0.203,3.592-1.184,3.801-3.097c0.209-1.911-1.154-3.628-3.045-3.831
					s-3.594,1.183-3.802,3.095C418.636,314.127,420,315.844,421.891,316.047z"/>
				<path style="fill:#A5C8E4;" d="M187.77,119.342c-0.14,0.42,0.076,0.875,0.49,1.022l0.851,0.306
					c0.242,0.086,0.367,0.354,0.282,0.599l-0.089,0.251c-0.115,0.327,0.052,0.687,0.376,0.802l1.407,0.504
					c1.78,0.636,3.738-0.31,4.376-2.112c0.636-1.803-0.291-3.78-2.071-4.416l-1.406-0.504c-0.323-0.115-0.679,0.056-0.795,0.383
					l-0.089,0.251c-0.086,0.245-0.351,0.373-0.593,0.287l-0.851-0.306c-0.418-0.15-0.878,0.073-1.026,0.495l-0.007,0.019
					l-0.85,2.404C187.772,119.333,187.772,119.338,187.77,119.342z"/>
				<path style="fill:#A5C8E4;" d="M212.244,126.719c-0.638,1.803,0.289,3.78,2.069,4.417l1.406,0.504
					c0.325,0.115,0.679-0.057,0.796-0.385l0.088-0.251c0.087-0.243,0.353-0.373,0.593-0.286l0.853,0.304
					c0.412,0.147,0.867-0.066,1.02-0.481c0.004-0.004,0.004-0.009,0.006-0.014l0.849-2.403l0.007-0.02
					c0.148-0.422-0.069-0.887-0.485-1.036l-0.853-0.304c-0.24-0.087-0.367-0.355-0.28-0.6l0.088-0.25
					c0.115-0.329-0.052-0.687-0.375-0.804l-1.408-0.502C214.839,123.971,212.88,124.916,212.244,126.719z"/>
				<path style="fill:#72A2BA;" d="M156.071,158.989c0.425-0.033,0.865,0.021,1.294,0.175c0.423,0.15,0.794,0.383,1.101,0.676
					c3.061-8.408,10.927-28.54,19.098-37.559c2.607-2.879,6.556-3.997,10.206-2.937c0.002-0.005,0.003-0.009,0.005-0.014l0.85-2.404
					c-4.612-1.401-9.626-0.011-12.923,3.631C167.114,130.033,159.162,150.445,156.071,158.989z"/>
				<path style="fill:#72A2BA;" d="M219.076,130.527c-0.002,0.005-0.003,0.009-0.006,0.014c3.495,1.497,5.856,4.873,6.074,8.762
					c0.68,12.184-5.848,32.793-8.749,41.26c0.42-0.03,0.855,0.024,1.278,0.176c0.427,0.152,0.803,0.389,1.112,0.686
					c2.963-8.589,9.601-29.473,8.887-42.277c-0.276-4.92-3.291-9.183-7.746-11.024L219.076,130.527z"/>
				<path style="fill:#72A2BA;" d="M90.306,276.934c-2.711,9.283,0.625,18.962,9.39,27.252c0.03,0.029,0.064,0.057,0.098,0.083
					c5.168,3.974,10.738,6.583,17.024,7.974c5.594,1.236,11.636,1.474,18.471,0.724c12.613-1.384,25.695-5.857,39.546-10.593
					c24.347-8.323,49.523-16.93,72.645-8.022c0.024,0.009,0.049,0.017,0.072,0.025c11.664,3.691,23.433,13.335,34.813,22.662
					c8.227,6.741,15.996,13.108,23.725,17.381c8.738,4.83,19.016,8.565,29.724,10.799c3.781,0.788,7.62,1.391,11.463,1.805
					c6.973,0.75,13.953,0.876,20.625,0.354c10.972-0.857,20.844-3.358,29.346-7.435c9.222-4.423,16.416-10.528,21.384-18.145
					c0.073-0.111,0.125-0.231,0.161-0.353c-0.776-0.309-1.499-0.717-2.151-1.21c-0.043,0.048-0.084,0.102-0.122,0.159
					c-9.134,14.01-26.465,22.687-48.801,24.432c-20.583,1.609-43.165-3.121-60.404-12.652c-7.529-4.162-15.213-10.459-23.349-17.126
					c-11.553-9.468-23.5-19.258-35.61-23.103c-23.961-9.213-49.562-0.459-74.322,8.006c-26.192,8.953-50.971,17.426-71.006,3.516
					c-1.075-0.747-2.081-1.591-2.99-2.536c-6.99-7.267-9.583-15.473-7.303-23.28c2.894-9.912,13.152-17.652,26.772-20.203
					c1.187-0.222,2.368-0.436,3.618-0.662c8.661-1.569,18.476-3.347,26.816-7.616c8.937-4.575,14.97-11.362,18.383-20.703
					c-0.229,0.027-0.461,0.029-0.696,0.004c-0.241-0.026-0.483-0.081-0.72-0.166c-0.38-0.136-0.719-0.338-1.007-0.59
					c-7.421,20.066-26.397,23.504-43.213,26.55c-1.198,0.217-2.438,0.441-3.632,0.666
					C104.486,257.657,93.471,266.088,90.306,276.934z"/>
				<path style="fill:#A5C8E4;" d="M151.4,166.552c-3.168,8.965-2.698,18.625,1.32,27.203c3.565,7.607,9.544,13.556,17.024,17.012
					l-4.753,13.453c-0.453,1.281-0.052,2.659,0.908,3.495c0.288,0.252,0.627,0.454,1.007,0.59c0.237,0.085,0.48,0.14,0.72,0.166
					c0.234,0.025,0.467,0.023,0.696-0.004c1.164-0.137,2.209-0.923,2.629-2.115l4.753-13.453c1.664,0.432,3.344,0.738,5.03,0.919
					c6.397,0.688,12.88-0.423,18.845-3.3c8.498-4.1,14.921-11.295,18.088-20.259l1.921-5.437c0.435-1.233,0.08-2.555-0.802-3.397
					c-0.31-0.297-0.685-0.534-1.112-0.686c-0.423-0.152-0.857-0.207-1.278-0.176c-1.218,0.09-2.33,0.891-2.767,2.127l-1.921,5.437
					c-2.597,7.351-7.866,13.253-14.835,16.614c-6.968,3.363-14.805,3.784-22.063,1.187c-14.983-5.36-22.811-22.07-17.45-37.246
					l1.921-5.437c0.437-1.238,0.076-2.567-0.814-3.408c-0.307-0.292-0.678-0.525-1.101-0.676c-0.429-0.154-0.868-0.208-1.294-0.175
					c-1.212,0.094-2.316,0.893-2.753,2.126L151.4,166.552z"/>
			</g>
		</g>
	</g>
	<g>
		<g>
			<path style="fill:#FFFFFF;" d="M217.446,407.894c-67.567,0-70.729-131.751-70.729-131.751
				c24.03-6.133,36.215-29.864,36.215-29.864s13.707-3.183,34.515-3.183s34.514,3.183,34.514,3.183s12.185,23.731,36.215,29.864
				C288.175,276.142,285.013,407.894,217.446,407.894z"/>
			<path style="fill:#A5C8E4;" d="M217.446,398.798c-6.493,0-12.555-1.519-18.02-4.516c-5.137-2.817-9.966-7.04-14.351-12.553
				c-7.908-9.939-14.473-24.053-19.512-41.951c-4.616-16.394-7.022-32.863-8.227-43.792c-0.602-5.457-0.969-10.103-1.185-13.392
				c17.392-7.039,28.198-21.398,32.518-28.151c5.381-0.908,15.58-2.252,28.778-2.252c13.198,0,23.398,1.345,28.778,2.253
				c4.321,6.754,15.128,21.113,32.518,28.151c-0.217,3.289-0.584,7.935-1.185,13.392c-1.205,10.929-3.61,27.398-8.227,43.792
				c-5.04,17.898-11.605,32.012-19.512,41.951c-4.386,5.512-9.214,9.736-14.351,12.553
				C230.001,397.279,223.938,398.798,217.446,398.798z"/>
		</g>
		<polygon style="fill:#FFFFFF;" points="262.187,303.025 230.28,303.025 230.28,270.692 204.79,270.692 204.79,303.025 
			172.883,303.025 172.883,328.855 204.79,328.855 204.79,361.188 230.28,361.188 230.28,328.855 262.187,328.855 		"/>
	</g>
	<g>
		<path style="fill:#72A2BA;" d="M301.235,205.071c0,0-1.283,26.849-37.708,40.232l-3.681-1.73l0.833-1.62
			c0.002-0.002,0.002-0.002,0.002-0.002L288.777,191c3.479,1.321,6.984,3.025,10.278,5.221
			C299.055,196.221,296.746,201.353,301.235,205.071z"/>
		<path style="fill:#A5C8E4;" d="M259.835,184.73c0,0,20.113-0.529,35.539,9.762c0,0-2.309,5.13,2.18,8.85
			c0,0-1.283,26.849-37.709,40.231c0,0-21.291-20.607-9.107-53.827C250.739,189.747,257.27,191.271,259.835,184.73z"/>
		<polygon style="fill:#FFFFFF;" points="284.338,211.494 274.894,208.816 277.573,199.372 269.622,197.117 266.944,206.561 
			257.501,203.883 255.246,211.833 264.689,214.511 262.011,223.955 269.961,226.21 272.64,216.766 282.083,219.444 		"/>
	</g>
	<rect x="71.641" y="407.303" style="fill:#293F60;" width="357.79" height="5.594"/>
	<g>
		<path style="fill:#FD5B68;" d="M151.777,341.026c-11.617-8.466-39.365,10.843,6.227,35.315
			C192.477,337.751,159.798,329.097,151.777,341.026z"/>
		<path style="fill:#FFFFFF;" d="M137.35,360.866c2.484-0.538,4.972-1.048,7.462-1.55l-0.153,0.101
			c1.13-1.978,2.294-3.934,3.474-5.88l0.523-0.862l0.426,0.954c0.704,1.577,1.414,3.151,2.087,4.739
			c0.691,1.582,1.354,3.175,2.011,4.771l-1.381-0.034c0.981-2.167,2.011-4.312,3.025-6.464c1.025-2.147,2.066-4.286,3.124-6.418
			l0.5-1.007l0.577,0.931c1.293,2.086,2.58,4.175,3.845,6.279l-0.426-0.185c1.592-0.241,3.193-0.435,4.79-0.654
			c1.597-0.217,3.195-0.428,4.798-0.61c-1.568,0.378-3.142,0.726-4.717,1.069c-1.575,0.34-3.146,0.705-4.724,1.024l-0.26,0.053
			l-0.166-0.238c-1.408-2.011-2.794-4.037-4.173-6.066l1.077-0.075c-0.95,2.182-1.918,4.355-2.902,6.521
			c-0.995,2.161-1.973,4.329-3,6.475l-0.744,1.553l-0.637-1.588c-0.643-1.601-1.278-3.206-1.887-4.821
			c-0.626-1.608-1.215-3.231-1.811-4.852l0.948,0.091c-1.307,1.862-2.63,3.715-3.987,5.545l-0.065,0.088l-0.088,0.013
			C142.381,360.149,139.868,360.521,137.35,360.866z"/>
	</g>
	<g>
		<circle style="fill:#FD5B68;" cx="99.64" cy="224.807" r="20.146"/>
		<g>
			
				<rect x="96.304" y="212.288" transform="matrix(-1.836970e-16 1 -1 -1.836970e-16 325.1225 124.2488)" style="fill:#FFFFFF;" width="8.265" height="24.795"/>
			<rect x="96.304" y="212.288" style="fill:#FFFFFF;" width="8.265" height="24.795"/>
		</g>
	</g>
	<g>
		<path style="fill:#F4B3B3;" d="M325.982,168.128c-0.044-0.905,0.974-3.139,1.351-4.098c0.377-0.959,1.598-3.641,0.392-4.474
			c-1.208-0.834-1.965,2.697-2.01,3.245c-0.045,0.548-1.561,3.416-1.561,3.416c-0.24-0.78,1.641-5.544,0.454-5.764
			c-1.189-0.22-2.501,4.975-2.448,5.525c0.051,0.54-0.737,2.219-0.762,2.271c-0.001-0.068-0.044-2.265,0.031-2.772
			c0.076-0.515,0.931-2.656-0.391-2.651c-1.323,0.003-1.78,5.925-1.794,6.538c-0.014,0.612-0.388,1.474-0.308,2.219
			c0.064,0.598,0.09,2.489,0.014,3.641c-0.018,0.279-0.043,0.514-0.073,0.678c-0.16,0.84-2.842,3.312-2.842,3.312
			c0.086,0.33,5.076,3.932,7.166,2.714c0,0,0.802-1.471,1.702-2.812c0.625-0.931,1.297-1.8,1.78-2.067
			c1.176-0.651,3.126-2.704,3.449-4.212c0.325-1.508,3.812-3.074,2.441-3.783c-1.371-0.708-2.856,0.741-3.293,1.562
			c-0.438,0.82-1.73,2.291-1.73,2.291s-0.062-1.517,0.085-2.329c0.148-0.811,0.668-2.428,1.614-4.309
			c0.946-1.882,2.246-3.723,1.207-4.876C329.419,160.239,325.982,168.128,325.982,168.128z"/>
		<g>
			<path style="fill:#FFA185;" d="M353.427,407.323l-20.684,0.231l0.091-3.453l6.595-5.627c0.005-0.024,0.014-0.046,0.02-0.07
				c0.041-1.367,0.101-3.202,0.171-5.239c0.172-5.093,0.398-11.432,0.519-14.754c0.05-1.41,0.082-2.276,0.082-2.276l16.864,1.99
				c0,0-0.192,0.852-0.501,2.227c-0.746,3.312-2.178,9.652-3.301,14.424c-0.426,1.808-0.805,3.388-1.085,4.496
				c0.037,0.163,0.067,0.312,0.091,0.44C352.559,401.128,353.427,407.323,353.427,407.323z"/>
			<path style="fill:#00174B;" d="M339.44,398.424c-0.222-0.264-0.545-0.468-0.795-0.345c-0.25,0.123-6.591,4.354-6.884,4.564
				c-0.293,0.211-0.486,0.472-0.504,1.145c-0.018,0.674-0.117,4.455-0.117,4.455l22.723-0.254c0,0-0.711-6.569-0.765-6.931
				c-0.051-0.363-0.473-0.839-0.72-0.828c-0.247,0.01-2.114,0.67-4.826,0.701c-3.085,0.034-5.128-0.392-6.266-0.932
				C340.371,399.567,339.44,398.424,339.44,398.424z"/>
			<path style="fill:#00174B;" d="M334.969,404.473c1.122-0.697,5.147-3.34,6.655-4.331c-0.117-0.046-0.237-0.092-0.337-0.141
				c-0.043-0.02-0.086-0.049-0.129-0.073c-1.612,1.06-5.396,3.543-6.474,4.215c-1.461,0.908-1.789,2.303-1.801,2.362l0.486,0.062
				C333.371,406.554,333.67,405.28,334.969,404.473z"/>
			<path style="fill:#00174B;" d="M353.369,403.462c-1.789,0.089-3.277,0.546-4.438,1.375c-1.462,1.043-2.038,2.408-2.265,3.234
				l0.676-0.008c0.227-0.754,0.761-1.924,2.006-2.81c1.053-0.753,2.421-1.169,4.082-1.244
				C353.41,403.825,353.389,403.642,353.369,403.462z"/>
			<path style="fill:#00174B;" d="M354.133,409.476c-0.004,0.095-0.157,0.175-0.341,0.176l-26.399,0.181
				c-0.186,0.001-0.332-0.076-0.328-0.171l0.056-1.321c0.004-0.095,0.157-0.174,0.343-0.176l26.399-0.181
				c0.184-0.001,0.33,0.076,0.326,0.171L354.133,409.476z"/>
			<path style="fill:#00174B;" d="M331.818,402.604c-0.232-0.075-1.389,0.211-2.917,1.46c-1.527,1.248-1.915,3.496-1.436,4.222
				l7.5-0.084C334.66,404.183,332.048,402.681,331.818,402.604z"/>
			<g>
				<path style="fill:#FFFFFF;" d="M334.744,402.637c0.188,0.195,0.149,0.484-0.087,0.649l0,0c-0.236,0.166-0.583,0.144-0.771-0.049
					l-1.223-1.25c-0.188-0.194-0.152-0.483,0.087-0.65l0,0c0.236-0.165,0.581-0.143,0.769,0.051L334.744,402.637z"/>
				<path style="fill:#FFFFFF;" d="M336.194,401.677c0.188,0.194,0.149,0.484-0.087,0.649l0,0c-0.236,0.166-0.583,0.144-0.771-0.049
					l-1.223-1.25c-0.188-0.193-0.149-0.485,0.087-0.65l0,0c0.236-0.165,0.581-0.143,0.771,0.051L336.194,401.677z"/>
				<path style="fill:#FFFFFF;" d="M337.644,400.717c0.191,0.194,0.152,0.484-0.087,0.65l0,0c-0.236,0.166-0.581,0.144-0.771-0.049
					l-1.221-1.25c-0.19-0.193-0.151-0.485,0.087-0.649l0,0c0.234-0.167,0.581-0.144,0.769,0.049L337.644,400.717z"/>
				<path style="fill:#FFFFFF;" d="M339.094,399.758c0.19,0.194,0.149,0.483-0.087,0.65l0,0c-0.236,0.166-0.581,0.142-0.771-0.05
					l-1.223-1.249c-0.188-0.195-0.149-0.485,0.09-0.651l0,0c0.236-0.166,0.581-0.142,0.769,0.05L339.094,399.758z"/>
			</g>
		</g>
		<g>
			<path style="fill:#FFA185;" d="M392.878,398.489c-0.25-0.997-0.532-2.129-0.833-3.337c-1.223-4.915-2.741-11.067-3.553-14.363
				c-0.357-1.446-0.578-2.341-0.578-2.341l17.033-1.458c0,0,0.052,0.914,0.129,2.38c0.189,3.412,0.53,9.812,0.742,14.604
				c0.135,2.982,0.217,5.341,0.184,5.973c-0.003,0.048-0.008,0.097-0.012,0.145c0.387,1.91,1.306,7.212,1.306,7.212l-20.722,0.124
				l-0.021-3.446L392.878,398.489z"/>
			<path style="fill:#00174B;" d="M392.994,398.35c-0.234-0.265-0.564-0.47-0.808-0.348c-0.249,0.122-6.464,4.312-6.753,4.52
				c-0.287,0.209-0.469,0.469-0.465,1.141c0.004,0.673,0.027,4.446,0.027,4.446l22.759-0.136c0,0-0.925-6.561-0.99-6.922
				c-0.06-0.363-0.499-0.84-0.745-0.831c-0.247,0.009-2.096,0.658-4.816,0.675c-3.087,0.018-5.152-0.418-6.309-0.962
				C393.964,399.495,392.994,398.35,392.994,398.35z"/>
			<path style="fill:#00174B;" d="M388.709,404.364c1.099-0.69,5.047-3.307,6.527-4.288c-0.116-0.047-0.238-0.093-0.342-0.143
				c-0.041-0.02-0.087-0.049-0.131-0.073c-1.579,1.05-5.29,3.509-6.351,4.174c-1.437,0.898-1.716,2.29-1.728,2.349l0.487,0.065
				C387.175,406.433,387.431,405.163,388.709,404.364z"/>
			<path style="fill:#00174B;" d="M407.112,403.451c-1.788,0.079-3.266,0.528-4.401,1.349c-1.434,1.034-1.965,2.392-2.166,3.217
				l0.677-0.004c0.201-0.751,0.7-1.916,1.917-2.794c1.031-0.746,2.391-1.154,4.051-1.221
				C407.165,403.813,407.137,403.63,407.112,403.451z"/>
			<path style="fill:#00174B;" d="M408.105,409.463c0.001,0.095-0.148,0.174-0.335,0.174l-26.444,0.097
				c-0.184,0.001-0.337-0.077-0.338-0.172l-0.013-1.318c-0.001-0.095,0.151-0.174,0.335-0.174l26.444-0.097
				c0.186-0.001,0.337,0.077,0.338,0.172L408.105,409.463z"/>
			<path style="fill:#00174B;" d="M385.491,402.482c-0.235-0.077-1.388,0.204-2.878,1.442c-1.488,1.238-1.804,3.48-1.303,4.206
				l7.515-0.045C388.39,404.073,385.724,402.561,385.491,402.482z"/>
			<g>
				<path style="fill:#FFFFFF;" d="M388.422,402.531c0.197,0.195,0.165,0.484-0.066,0.647l0,0c-0.231,0.164-0.577,0.141-0.772-0.053
					l-1.268-1.254c-0.195-0.194-0.165-0.483,0.069-0.648l0,0c0.231-0.163,0.575-0.14,0.772,0.055L388.422,402.531z"/>
				<path style="fill:#FFFFFF;" d="M389.844,401.58c0.195,0.194,0.165,0.484-0.064,0.647l0,0c-0.234,0.164-0.58,0.141-0.777-0.053
					l-1.263-1.254c-0.197-0.193-0.167-0.485,0.066-0.648l0,0c0.229-0.163,0.577-0.14,0.772,0.055L389.844,401.58z"/>
				<path style="fill:#FFFFFF;" d="M391.266,400.629c0.197,0.194,0.167,0.484-0.066,0.648l0,0c-0.231,0.164-0.577,0.141-0.772-0.053
					l-1.266-1.254c-0.197-0.193-0.167-0.485,0.066-0.647l0,0c0.231-0.165,0.578-0.141,0.775,0.053L391.266,400.629z"/>
				<path style="fill:#FFFFFF;" d="M392.69,399.679c0.195,0.194,0.165,0.483-0.066,0.648l0,0c-0.231,0.164-0.58,0.139-0.775-0.054
					l-1.266-1.253c-0.195-0.195-0.167-0.485,0.069-0.649l0,0c0.229-0.164,0.575-0.139,0.772,0.054L392.69,399.679z"/>
			</g>
		</g>
		<path style="fill:#ED806B;" d="M340.139,378.41c-0.12,3.323-0.346,9.661-0.519,14.754l13.664,1.61
			c1.123-4.772,2.555-11.112,3.301-14.424L340.139,378.41z"/>
		<path style="fill:#ED806B;" d="M388.492,380.789c0.812,3.296,2.33,9.449,3.553,14.363l13.774-1.179
			c-0.213-4.792-0.554-11.192-0.742-14.604L388.492,380.789z"/>
		<path style="fill:#063E8E;" d="M337.736,319.127l-0.001-2.729c0.032-0.637,0.136-1.258,0.301-1.86
			c0.528-8.249,1.742-27.286,2.52-39.806c-0.082-0.694-0.11-1.438-0.068-2.243c0.987-19.09,4.443-26.825,4.443-27.483l40.978,0.823
			c0,0,5.431,8.393,6.583,17.115c1.152,8.722,0.823,23.04,0.823,23.533c0,0.021-0.034,0.025-0.096,0.015
			c1.554,13.286,3.094,26.893,3.357,29.225c0.032,0.117,0.064,0.233,0.092,0.352l11.552,74.528l-4.725,0.521l-0.469,0.053
			l-13.688,1.512l-16.292-72.178c-0.021-0.092-0.037-0.185-0.056-0.277c-0.056-0.206-0.107-0.415-0.148-0.627
			c0,0-3.385-18.58-6.339-34.119c-2.167,16.01-4.738,34.909-4.738,34.909c-0.064,0.587-0.19,1.157-0.367,1.708l-5.1,69.206
			l-4.5-0.593l-0.468-0.06l-13.577-1.789l-0.016-69.035C337.728,319.594,337.726,319.361,337.736,319.127z"/>
		<path style="fill:#00174B;" d="M362.71,270.47l0.015,0.002c0.069-0.797,1.375-15.534,1.953-22.619l-0.496,0.02
			c-0.457,5.591-1.365,15.927-1.76,20.4c-0.054-0.536-0.099-1.069-0.128-1.602c-0.294-5.211-0.412-13.162-0.462-18.704l-0.494,0.02
			c0.049,5.547,0.168,13.498,0.462,18.714c0.491,8.706,4.547,18.134,4.587,18.228l0.454-0.197
			C366.803,284.652,363.871,277.829,362.71,270.47z"/>
		<g id="XMLID_78_">
			<polygon id="XMLID_152_" style="fill:#15EADF;" points="314.659,179.392 317.301,174.879 326.768,180.383 324.897,184.236 			"/>
			<path id="XMLID_122_" style="fill:#FFFFFF;" d="M402.95,305.199l-24.849,0.16l-18.906,0.123l-30.151,0.194
				c0-0.834,10.726-35.771,11.443-64.176c0.514-20.37-8.859-35.425-9.059-41.199c-0.212-6.144,9.18-11.724,20.855-15.357
				c0.176-0.056,0.355-0.111,0.533-0.165c6.116-1.863,12.822-3.191,19.082-3.791c0.237-0.023,0.472-0.044,0.708-0.064
				c8.299-0.727,15.701,2.618,19.822,4.972c1.936,5.643-0.521,24.287,0.329,54.981C393.536,269.043,402.95,305.199,402.95,305.199z"
				/>
			<path id="XMLID_118_" style="fill:#15EADF;" d="M372.841,250.148l-10.517-1.137l-10.041-64.067
				c0.176-0.056,0.355-0.111,0.533-0.165c6.116-1.863,12.822-3.191,19.082-3.791c0.237-0.023,0.472-0.044,0.708-0.064
				L372.841,250.148z"/>
			<path id="XMLID_153_" style="fill:#15EADF;" d="M374.222,182.702l-0.076,2.286c-2.026,4.647-6.235,8.114-11.462,8.806
				c-4.007,0.532-9.622-1.304-12.63-3.675l0.808-2.777C358.349,185.063,366.559,183.437,374.222,182.702z"/>
			<path id="XMLID_99_" style="fill:#97D0F0;" d="M348.199,186.244c-0.205,1.896-5.152,26.724-5.152,26.724l8.674-4.816
				l-5.293,9.019l16.204,31.968l-7.447-60.85l2.102-9.144L348.199,186.244z"/>
			<path id="XMLID_111_" style="fill:#97D0F0;" d="M377.45,180.735c0.44,1.856,10.165,31.138,10.165,31.138l-9.207-3.699l6.374,8.29
				L372.684,250.2l-1.709-64.865l-4.749-7.913L377.45,180.735z"/>
			<polygon id="XMLID_119_" style="fill:#063E8E;" points="378.101,305.359 359.195,305.482 362.632,249.139 372.671,249.268 			"/>
			<polygon id="XMLID_114_" style="fill:#97D0F0;" points="382.044,256.652 391.457,268.28 390.073,271.879 381.214,258.867 			"/>
			<polygon id="XMLID_115_" style="fill:#97D0F0;" points="356.607,257.788 356.74,260.045 346.186,273.063 346.186,267.526 			"/>
			<path id="XMLID_100_" style="fill:#FFFFFF;" d="M314.403,177.174l12.254,5.631l-2.506,19.744l14.193-10.741l1.11,29.708
				c0,0-22.592,10.186-32.182,6.734C297.684,224.797,314.403,177.174,314.403,177.174z"/>
			<path id="XMLID_125_" style="fill:#FFFFFF;" d="M392.428,185.896c0,0,30.245,35.05,28.346,41.109
				c-6.768,21.594-31.907,3.545-31.907,3.545l-7.288-7.672L392.428,185.896z"/>
			<ellipse id="XMLID_151_" style="fill:#15EADF;" cx="406.327" cy="224.519" rx="4.285" ry="7.6"/>
			<polygon id="XMLID_148_" style="fill:#063E8E;" points="363.8,203.047 402.061,197.333 407.278,240.811 370.166,247.451 			"/>
			<path id="XMLID_149_" style="fill:#EAA49D;" d="M404.634,214.145c0,0-5.547,0.351-5.839,2.099
				c-0.291,1.748,5.693,1.106,5.693,1.106s-3.828,0.293-4.119,2.041s4.411,1.455,4.411,1.455s-2.768,1.748-2.477,2.622
				c0.291,0.874,2.622,1.02,2.622,1.02s-3.351,3.059-2.622,3.934c0.728,0.874,4.079-0.291,4.516-1.603
				c0.437-1.311-0.583-2.185-0.583-2.185s1.828-1.675,0.583-3.642c0.481-0.709,0.583-3.205-0.291-3.497
				C405.654,217.205,406.674,214.582,404.634,214.145z"/>
			<polygon id="XMLID_150_" style="fill:#FFFFFF;" points="375.8,201.045 376.065,204.37 391.103,202.31 390.829,199.11 			"/>
			<path id="XMLID_133_" style="fill:#CEE9F9;" d="M324.152,202.549c0,0-0.333,12.605-3.314,14.593
				c-2.981,1.987-6.79,3.975-6.79,3.975s10.103-0.828,10.931-4.803C325.807,212.338,324.152,202.549,324.152,202.549z"/>
			<g>
				<g>
					<path style="fill:#EAA49D;" d="M356.502,183.146c0.145,0.704,0.356,1.372,0.621,1.992c1.333,3.123,4.032,5.061,6.652,4.519
						l0.178-0.037c3.14-0.649,4.974-4.615,4.097-8.861l-2.548-12.333l-11.067,0.391L356.502,183.146z"/>
				</g>
			</g>
			<path style="fill:#293F60;" d="M365.622,157.037c3.166,2.516,3.732,5.277,4.099,7.668c0.502,3.271-0.084,6.002-1.463,7.866
				c-1.148,1.552-12.836,2.736-12.836,2.736s-3.518-1.455-4.648-4.855c-1.441-4.335-1.108-8.784,0.549-10.856
				C351.323,159.598,362.587,154.626,365.622,157.037z"/>
			<path style="fill-rule:evenodd;clip-rule:evenodd;fill:#EAA49D;" d="M359.313,154.518c0,0,3.502,0.341,6.115,3.342
				c2.601,2.985,5.587,12.468-0.544,17.922c-6.125,5.451-12.487-0.201-13.574-6.423
				C350.213,163.141,350.174,154.656,359.313,154.518z"/>
			<g>
				<g>
					<path style="fill:#C42C2C;" d="M358.614,169.681c-0.013,0.002-0.026,0.003-0.039,0.004c-0.362,0.009-2.178,0.007-2.439-0.93
						c-0.228-0.82,0.719-3.568,0.911-4.11c0.051-0.144,0.209-0.219,0.353-0.169c0.144,0.051,0.219,0.209,0.168,0.353
						c-0.422,1.192-1.04,3.272-0.899,3.777c0.108,0.388,1.193,0.543,1.892,0.526c0.153-0.004,0.28,0.117,0.283,0.27
						C358.848,169.54,358.748,169.658,358.614,169.681z"/>
				</g>
				<g>
					<path style="fill:#293F60;" d="M353.526,165.643c0.042,0.471,0.423,0.823,0.85,0.785c0.428-0.038,0.741-0.451,0.699-0.922
						s-0.423-0.823-0.85-0.785C353.798,164.759,353.485,165.171,353.526,165.643z"/>
				</g>
				<g>
					<path style="fill:#293F60;" d="M362.737,161.903c-0.065,0.011-0.134-0.001-0.194-0.039c-1.359-0.864-2.749,0.159-2.763,0.17
						c-0.122,0.092-0.296,0.067-0.388-0.055c-0.092-0.122-0.067-0.296,0.055-0.388c0.069-0.052,1.714-1.262,3.393-0.194
						c0.129,0.082,0.167,0.253,0.085,0.382C362.881,161.848,362.811,161.891,362.737,161.903z"/>
				</g>
				<g>
					<path style="fill:#293F60;" d="M355.09,162.475c-0.059,0.01-0.121,0.001-0.178-0.03l0,0c-0.045-0.024-1.097-0.579-1.918,0.232
						c-0.109,0.107-0.284,0.107-0.391-0.002c-0.107-0.109-0.106-0.284,0.002-0.391c0.895-0.884,2.074-0.598,2.573-0.324
						c0.134,0.074,0.183,0.242,0.109,0.376C355.244,162.413,355.17,162.462,355.09,162.475z"/>
				</g>
				<g>
					<path style="fill:#293F60;" d="M361.574,170.84c-3.655,1.332-5.385,0.86-5.385,0.86s0.169,2.377,2.398,2.302
						C361.777,173.894,361.574,170.84,361.574,170.84z"/>
				</g>
				<g>
					<path style="fill:#FFFFFF;" d="M356.326,171.728c0,0,0.153,0.424,0.201,0.507c0.051,0.08,0.448,0.289,2,0.182
						c1.312-0.089,2.616-0.638,2.984-0.804c0.085-0.445,0.062-0.772,0.062-0.772c-0.213,0.079-0.421,0.149-0.622,0.214
						c-2.668,0.879-4.178,0.744-4.622,0.672C356.326,171.728,356.326,171.728,356.326,171.728z"/>
				</g>
				<g>
					
						<ellipse transform="matrix(0.9961 -0.0883 0.0883 0.9961 -13.183 32.5107)" style="fill:#293F60;" cx="360.839" cy="165.248" rx="0.801" ry="0.883"/>
				</g>
			</g>
			<path style="fill:#293F60;" d="M369.214,162.746l-1.166,3.768c-0.789-0.139-0.673-1.394-1-1.622
				c0.244-2.449,0.088-5.614-1.182-6.969c-1.414-1.509-3.827-0.478-6.204-0.717c-1.952-0.196-4.666-1.807-6.429-0.146
				c-1.495,1.409-1.901,4.23-1.758,6.894c-1.075,0.037-1.166,0.54-1.845,0.553c0,0-0.818-3.628,1.503-7.874
				c2.321-4.246,6.125-5.601,9.244-5.34S370.36,154.829,369.214,162.746z"/>
			<path style="fill-rule:evenodd;clip-rule:evenodd;fill:#EAA49D;" d="M349.635,166.354c0.816,1.414,2.136,2.201,2.921,1.722
				c0.795-0.46,0.759-1.998-0.059-3.411c-0.831-1.427-2.14-2.198-2.936-1.735C348.77,163.386,348.802,164.927,349.635,166.354z"/>
			<path style="fill-rule:evenodd;clip-rule:evenodd;fill:#EAA49D;" d="M367.027,165.426c-0.233,1.686,0.474,3.219,1.594,3.432
				c1.108,0.192,2.207-1.017,2.438-2.702c0.238-1.688-0.474-3.219-1.582-3.411C368.368,162.551,367.265,163.738,367.027,165.426z"/>
		</g>
		<g id="_x3C_Grupo_x3E_">
			
				<ellipse transform="matrix(0.5359 -0.8443 0.8443 0.5359 -1.1269 416.2934)" style="fill:#063E8E;" cx="378.106" cy="209.172" rx="4.162" ry="4.162"/>
			<path style="fill:#293F60;" d="M380.75,209.232c-0.033,1.46-1.244,2.617-2.704,2.584c-1.46-0.033-2.617-1.244-2.584-2.704
				c0.033-1.46,1.244-2.617,2.704-2.584C379.626,206.561,380.783,207.772,380.75,209.232z"/>
			<path style="fill:#063E8E;" d="M350.776,235.42c-4.09-5.585-6.459-11.279-6.851-16.466c-0.323-4.26,0.728-8.134,2.881-10.628
				c2.106-2.439,4.893-3.173,7.274-1.915c4.226,2.231,7.078,10.885,2.41,28.484l-0.843-0.223c2.106-7.939,2.824-14.519,2.134-19.56
				c-0.548-4.004-2.007-6.821-4.108-7.93c-2.003-1.057-4.382-0.401-6.208,1.714c-2.003,2.32-2.977,5.962-2.672,9.993
				c0.38,5.025,2.692,10.564,6.685,16.017L350.776,235.42z"/>
			<path style="fill:#293F60;" d="M343.78,217.62c-0.042-4.192,1.223-6.927,2.292-8.483c1.416-2.062,3.368-3.303,5.355-3.405
				c3.112-0.158,6.697,2.475,7.432,10.355l-1.042,0.097c-0.667-7.143-3.707-9.543-6.337-9.408
				c-3.323,0.172-6.721,4.271-6.654,10.833L343.78,217.62z"/>
			<path style="fill:#293F60;" d="M356.07,235.567c-0.067,0-0.134-0.008-0.202-0.026c-0.419-0.111-0.668-0.541-0.557-0.959
				c0.373-1.406,0.707-2.791,0.992-4.117c0.091-0.423,0.509-0.693,0.932-0.602c0.424,0.091,0.693,0.509,0.602,0.932
				c-0.291,1.35-0.63,2.759-1.009,4.189C356.734,235.335,356.417,235.567,356.07,235.567z"/>
			<path style="fill:#293F60;" d="M351.129,235.947c-0.242,0-0.48-0.111-0.634-0.321c-0.682-0.932-1.324-1.876-1.909-2.807
				c-0.23-0.367-0.12-0.851,0.247-1.082c0.367-0.231,0.851-0.12,1.082,0.247c0.565,0.9,1.186,1.813,1.846,2.715
				c0.256,0.35,0.18,0.841-0.17,1.097C351.452,235.898,351.29,235.947,351.129,235.947z"/>
			<path style="fill:#293F60;" d="M356.042,180.857c-0.017-0.097-0.028-0.197-0.028-0.299v-1.434
				c-4.105,4.961-6.172,14.453-5.746,26.952l1.045-0.036c-0.269-7.877,0.432-14.456,2.082-19.553
				C354.112,184.269,355.006,182.383,356.042,180.857z"/>
			<path style="fill:#293F60;" d="M368.615,177.321c-0.022,0.429-0.042,0.864-0.028,1.289c2.45,1.971,4.594,5.173,6.131,9.198
				c2.048,5.368,2.966,12.017,2.655,19.228l1.045,0.045C379.125,190.718,373.746,180.999,368.615,177.321z"/>
		</g>
	</g>
	<g>
		<g>
			<path style="fill:#72A2BA;" d="M344.987,298.328v6.626c0,2.613-1.428,4.892-3.546,6.098c-0.68,0.388-1.431,0.666-2.229,0.807
				c-0.402,0.073-0.817,0.11-1.24,0.11h-68.124c-0.336,0-0.665-0.023-0.988-0.069c-0.794-0.111-1.545-0.356-2.229-0.711
				c-2.257-1.164-3.798-3.519-3.798-6.235v-6.626c0-2.715,1.541-5.069,3.798-6.235c0.684-0.355,1.435-0.6,2.229-0.711
				c0.323-0.046,0.652-0.069,0.988-0.069h68.124c0.423,0,0.838,0.037,1.24,0.11c0.798,0.141,1.549,0.419,2.229,0.807
				C343.558,293.437,344.987,295.716,344.987,298.328z"/>
		</g>
		<g>
			<path style="fill:#293F60;" d="M323.038,410.376h-38.257c-12.122,0-21.949-9.827-21.949-21.949v-68.673
				c0-4.299,3.485-7.785,7.785-7.785h66.585c4.299,0,7.785,3.485,7.785,7.785v68.673
				C344.987,400.549,335.16,410.376,323.038,410.376z"/>
		</g>
		<g>
			<path style="fill:#E3FBFF;" d="M341.188,323.62v62.185c0,11.057-8.963,20.021-20.02,20.021h-34.517
				c-11.057,0-20.02-8.964-20.02-20.021V323.62c0-3.921,3.18-7.101,7.101-7.101h60.356
				C338.009,316.519,341.188,319.698,341.188,323.62z"/>
		</g>
		<g>
			<g>
				<path style="fill:#B2DCF7;" d="M268.86,292.468v18.347c-0.794-0.1-1.545-0.318-2.229-0.636v-17.075
					C267.315,292.786,268.066,292.567,268.86,292.468z"/>
			</g>
			<g>
				<rect x="274.695" y="292.406" style="fill:#B2DCF7;" width="2.229" height="18.471"/>
			</g>
			<g>
				<rect x="282.76" y="292.406" style="fill:#B2DCF7;" width="2.229" height="18.471"/>
			</g>
			<g>
				<rect x="290.825" y="292.406" style="fill:#B2DCF7;" width="2.229" height="18.471"/>
			</g>
			<g>
				<rect x="298.889" y="292.406" style="fill:#B2DCF7;" width="2.229" height="18.471"/>
			</g>
			<g>
				<rect x="306.953" y="292.406" style="fill:#B2DCF7;" width="2.229" height="18.471"/>
			</g>
			<g>
				<rect x="315.019" y="292.406" style="fill:#B2DCF7;" width="2.228" height="18.471"/>
			</g>
			<g>
				<rect x="323.083" y="292.406" style="fill:#B2DCF7;" width="2.229" height="18.471"/>
			</g>
			<g>
				<rect x="331.147" y="292.406" style="fill:#B2DCF7;" width="2.229" height="18.471"/>
			</g>
			<g>
				<path style="fill:#B2DCF7;" d="M341.441,293.226v16.83c-0.68,0.347-1.431,0.596-2.229,0.722v-18.274
					C340.01,292.63,340.76,292.879,341.441,293.226z"/>
			</g>
		</g>
		<g>
			<path style="fill:#FFFFFF;" d="M274.944,384.836l9.49,9.49c1.568,1.568,1.568,4.112,0,5.68c-1.569,1.569-4.112,1.569-5.681,0.001
				l-9.49-9.49c-1.568-1.568-1.568-4.112,0.001-5.681c0.784-0.784,1.812-1.177,2.84-1.176
				C273.132,383.659,274.16,384.051,274.944,384.836z"/>
		</g>
		<g>
			<path style="fill:#72A2BA;" d="M279.631,389.523l4.803,4.803c1.568,1.568,1.568,4.112,0,5.68
				c-1.569,1.569-4.112,1.569-5.681,0.001l-4.803-4.803c0.263-1.061,0.81-2.066,1.639-2.896l1.146-1.146
				C277.565,390.333,278.57,389.786,279.631,389.523z"/>
		</g>
		<g>
			<path style="fill:#FFFFFF;" d="M290.276,395.391l13.421-0.08c2.218-0.013,4.027,1.774,4.04,3.992
				c0.013,2.219-1.774,4.028-3.992,4.041l-13.421,0.08c-2.218,0.013-4.027-1.774-4.04-3.993c-0.007-1.109,0.437-2.116,1.16-2.847
				C288.165,395.853,289.167,395.398,290.276,395.391z"/>
		</g>
		<g>
			<path style="fill:#72A2BA;" d="M296.905,395.352l6.792-0.04c2.218-0.013,4.027,1.774,4.04,3.992
				c0.013,2.219-1.774,4.028-3.992,4.041l-6.792,0.04c-0.57-0.933-0.901-2.028-0.908-3.201l-0.01-1.62
				C296.028,397.391,296.346,396.292,296.905,395.352z"/>
		</g>
		<g>
			<path style="fill:#FFFFFF;" d="M312.852,395.622l13.421-0.08c2.218-0.013,4.027,1.774,4.04,3.992
				c0.013,2.219-1.774,4.028-3.992,4.041l-13.421,0.08c-2.218,0.013-4.027-1.774-4.04-3.993c-0.007-1.109,0.437-2.116,1.16-2.847
				C310.741,396.084,311.743,395.628,312.852,395.622z"/>
		</g>
		<g>
			<path style="fill:#72A2BA;" d="M319.481,395.582l6.792-0.04c2.218-0.013,4.027,1.774,4.04,3.992
				c0.013,2.219-1.774,4.028-3.992,4.041l-6.792,0.04c-0.57-0.933-0.901-2.028-0.908-3.201l-0.01-1.62
				C318.604,397.621,318.922,396.522,319.481,395.582z"/>
		</g>
		<g>
			<path style="fill:#FFFFFF;" d="M309.204,384.73l13.324,1.611c2.202,0.266,3.771,2.268,3.505,4.469
				c-0.266,2.203-2.268,3.772-4.47,3.506l-13.324-1.611c-2.202-0.266-3.771-2.268-3.505-4.47c0.133-1.101,0.7-2.044,1.509-2.678
				C307.052,384.922,308.103,384.596,309.204,384.73z"/>
		</g>
		<g>
			<path style="fill:#72A2BA;" d="M315.785,385.526l6.743,0.815c2.202,0.266,3.771,2.268,3.505,4.469
				c-0.266,2.203-2.268,3.772-4.47,3.506l-6.743-0.815c-0.448-0.998-0.638-2.126-0.497-3.29l0.195-1.609
				C314.659,387.438,315.113,386.388,315.785,385.526z"/>
		</g>
		<g>
			<path style="fill:#FFFFFF;" d="M279.734,367.482l3.086,13.061c0.51,2.159-0.827,4.322-2.985,4.832
				c-2.159,0.51-4.323-0.826-4.833-2.985l-3.086-13.061c-0.51-2.159,0.827-4.322,2.986-4.832c1.079-0.255,2.16-0.049,3.034,0.492
				C278.81,365.528,279.479,366.402,279.734,367.482z"/>
		</g>
		<g>
			<path style="fill:#72A2BA;" d="M281.258,373.933l1.562,6.61c0.51,2.159-0.827,4.322-2.985,4.832
				c-2.159,0.51-4.323-0.826-4.833-2.985l-1.562-6.61c0.782-0.764,1.775-1.332,2.916-1.602l1.577-0.373
				C279.074,373.536,280.217,373.599,281.258,373.933z"/>
		</g>
		<g>
			<path style="fill:#FFFFFF;" d="M338.322,378.888l-2.603,13.166c-0.43,2.176-2.543,3.591-4.719,3.161
				c-2.177-0.43-3.592-2.543-3.162-4.719l2.603-13.166c0.43-2.176,2.543-3.591,4.72-3.161c1.088,0.215,1.986,0.851,2.558,1.705
				C338.291,376.727,338.537,377.8,338.322,378.888z"/>
		</g>
		<g>
			<path style="fill:#72A2BA;" d="M337.037,385.391l-1.317,6.663c-0.43,2.176-2.543,3.591-4.719,3.161
				c-2.177-0.43-3.592-2.543-3.162-4.719l1.317-6.663c1.028-0.372,2.167-0.477,3.318-0.25l1.59,0.314
				C335.214,384.125,336.227,384.656,337.037,385.391z"/>
		</g>
		<g>
			<path style="fill:#FFFFFF;" d="M297.375,360.705l-9.08,9.883c-1.501,1.633-4.041,1.741-5.675,0.241
				c-1.634-1.501-1.742-4.042-0.241-5.675l9.08-9.883c1.501-1.633,4.041-1.741,5.676-0.24c0.817,0.75,1.252,1.761,1.295,2.788
				C298.474,358.845,298.126,359.888,297.375,360.705z"/>
		</g>
		<g>
			<path style="fill:#72A2BA;" d="M292.891,365.587l-4.595,5.002c-1.501,1.633-4.041,1.741-5.675,0.241
				c-1.634-1.501-1.742-4.042-0.241-5.675l4.595-5.002c1.072,0.218,2.099,0.722,2.962,1.515l1.193,1.096
				C291.994,363.556,292.583,364.537,292.891,365.587z"/>
		</g>
		<g>
			<path style="fill:#FFFFFF;" d="M325.361,373.285l-9.883-9.08c-1.633-1.501-1.741-4.041-0.241-5.675
				c1.501-1.634,4.042-1.742,5.675-0.241l9.883,9.08c1.633,1.501,1.741,4.041,0.24,5.676c-0.75,0.817-1.761,1.252-2.788,1.295
				C327.221,374.383,326.178,374.035,325.361,373.285z"/>
		</g>
		<g>
			<path style="fill:#72A2BA;" d="M320.48,368.8l-5.002-4.595c-1.633-1.501-1.741-4.041-0.241-5.675
				c1.501-1.634,4.042-1.742,5.675-0.241l5.002,4.595c-0.218,1.072-0.721,2.099-1.515,2.962l-1.096,1.193
				C322.51,367.903,321.529,368.492,320.48,368.8z"/>
		</g>
		<g>
			<path style="fill:#FFFFFF;" d="M311.488,374.353l-13.002-3.327c-2.149-0.55-3.445-2.738-2.896-4.887
				c0.55-2.15,2.738-3.446,4.887-2.896l13.002,3.327c2.149,0.55,3.445,2.738,2.895,4.887c-0.275,1.074-0.959,1.936-1.844,2.459
				C313.646,374.441,312.562,374.627,311.488,374.353z"/>
		</g>
		<g>
			<path style="fill:#72A2BA;" d="M305.065,372.709l-6.58-1.683c-2.149-0.55-3.445-2.738-2.896-4.887
				c0.55-2.15,2.738-3.446,4.887-2.896l6.58,1.683c0.314,1.047,0.357,2.19,0.066,3.327l-0.402,1.57
				C306.43,370.96,305.844,371.942,305.065,372.709z"/>
		</g>
		<g>
			<path style="fill:#FFFFFF;" d="M292.642,376.406l-1.678,13.316c-0.277,2.201-2.286,3.76-4.487,3.483
				c-2.202-0.277-3.761-2.286-3.484-4.487l1.678-13.316c0.277-2.201,2.286-3.76,4.488-3.483c1.1,0.139,2.041,0.71,2.67,1.522
				C292.46,374.253,292.78,375.306,292.642,376.406z"/>
		</g>
		<g>
			<path style="fill:#72A2BA;" d="M291.813,382.983l-0.849,6.739c-0.277,2.201-2.286,3.76-4.487,3.483
				c-2.202-0.277-3.761-2.286-3.484-4.487l0.849-6.739c1-0.443,2.129-0.627,3.292-0.481l1.608,0.203
				C289.906,381.848,290.954,382.306,291.813,382.983z"/>
		</g>
		<g>
			<path style="fill:#FFFFFF;" d="M294.852,390.612l-0.854-13.394c-0.141-2.214,1.539-4.123,3.752-4.264
				c2.214-0.141,4.124,1.539,4.265,3.752l0.854,13.394c0.141,2.214-1.539,4.123-3.753,4.264c-1.107,0.071-2.138-0.314-2.909-0.993
				C295.435,392.693,294.923,391.719,294.852,390.612z"/>
		</g>
		<g>
			<path style="fill:#72A2BA;" d="M294.43,383.997l-0.432-6.778c-0.141-2.214,1.539-4.123,3.752-4.264
				c2.214-0.141,4.124,1.539,4.265,3.752l0.432,6.778c-0.899,0.623-1.973,1.016-3.143,1.091l-1.617,0.103
				C296.516,384.754,295.401,384.5,294.43,383.997z"/>
		</g>
		<g>
			<path style="fill:#FFFFFF;" d="M309.613,375.489l13.359-1.287c2.208-0.213,4.17,1.405,4.383,3.613
				c0.213,2.209-1.405,4.171-3.613,4.384l-13.359,1.287c-2.208,0.213-4.17-1.405-4.383-3.614c-0.106-1.104,0.245-2.147,0.899-2.939
				C307.553,376.139,308.51,375.595,309.613,375.489z"/>
		</g>
		<g>
			<path style="fill:#72A2BA;" d="M316.212,374.853l6.761-0.651c2.208-0.213,4.17,1.405,4.383,3.613
				c0.213,2.209-1.405,4.171-3.613,4.384l-6.761,0.651c-0.651-0.878-1.079-1.939-1.192-3.107l-0.155-1.613
				C315.523,376.963,315.74,375.84,316.212,374.853z"/>
		</g>
	</g>
	<g>
		<g>
			
				<rect x="432.252" y="163.424" transform="matrix(-1.836970e-16 1 -1 -1.836970e-16 607.6754 -262.8279)" style="fill:#E3FBFF;" width="6" height="18"/>
			<rect x="432.251" y="163.424" style="fill:#E3FBFF;" width="6" height="18"/>
		</g>
		<g>
			
				<rect x="435.667" y="195.385" transform="matrix(-1.836970e-16 1 -1 -1.836970e-16 643.0524 -234.2823)" style="fill:#E3FBFF;" width="6" height="18"/>
			<rect x="435.667" y="195.385" style="fill:#E3FBFF;" width="6" height="18"/>
		</g>
		<g>
			
				<rect x="196.12" y="76.713" transform="matrix(-1.836970e-16 1 -1 -1.836970e-16 284.8332 -113.4071)" style="fill:#E3FBFF;" width="6" height="18"/>
			<rect x="196.12" y="76.713" style="fill:#E3FBFF;" width="6" height="18"/>
		</g>
		<g>
			
				<rect x="35.825" y="218.231" transform="matrix(-1.836970e-16 1 -1 -1.836970e-16 266.0561 188.4057)" style="fill:#E3FBFF;" width="6" height="18"/>
			<rect x="35.825" y="218.231" style="fill:#E3FBFF;" width="6" height="18"/>
		</g>
		<g>
			
				<rect x="156.124" y="75.54" transform="matrix(-1.836970e-16 1 -1 -1.836970e-16 243.6639 -74.5842)" style="fill:#E3FBFF;" width="6" height="18"/>
			<rect x="156.124" y="75.54" style="fill:#E3FBFF;" width="6" height="18"/>
		</g>
	</g>
</g>
<g id="TEXTS">
</g>
</svg>
